<svg xmlns="http://www.w3.org/2000/svg" xmlns:xlink="http://www.w3.org/1999/xlink" width="108" height="108" viewBox="0 0 108 108"><defs><style>.a,.h{fill:#fff;}.a{stroke:#707070;}.b{clip-path:url(#a);}.c{fill:#91e0e8;}.d{fill:#1ba0ae;}.e{fill:#cd2a00;}.f{fill:#d8d7da;}.g{fill:#ff3501;}</style><clipPath id="a"><rect class="a" width="108" height="108" transform="translate(364 623)"/></clipPath></defs><g transform="translate(-1514 -1242)"><g class="b" transform="translate(1150 619)"><g transform="translate(364 625.317)"><circle class="c" cx="51.597" cy="51.597" r="51.597" transform="translate(2.317 0)"/></g></g><g transform="translate(45)"><ellipse class="d" cx="20.5" cy="3" rx="20.5" ry="3" transform="translate(1502 1337)"/><g transform="translate(1432.471 1252)"><path class="e" d="M243.15,0V18.835a14.433,14.433,0,0,1,0,28.866V87.734l26.418-33.214a33.3,33.3,0,0,0,7.251-20.852A33.707,33.707,0,0,0,243.15,0Z" transform="translate(-152.952)"/><path class="f" d="M257.583,118.833A14.449,14.449,0,0,0,243.15,104.4v28.866A14.45,14.45,0,0,0,257.583,118.833Z" transform="translate(-152.952 -85.565)"/><path class="g" d="M75.766,33.268A14.449,14.449,0,0,1,90.2,18.835V0A33.707,33.707,0,0,0,56.53,33.668a33.3,33.3,0,0,0,7.258,20.859L90.2,87.734V47.7A14.45,14.45,0,0,1,75.766,33.268Z"/><path class="h" d="M163.15,118.833a14.45,14.45,0,0,0,14.433,14.433V104.4A14.449,14.449,0,0,0,163.15,118.833Z" transform="translate(-87.384 -85.565)"/></g></g></g></svg>