<svg xmlns="http://www.w3.org/2000/svg" xmlns:xlink="http://www.w3.org/1999/xlink" width="112.51" height="103.193" viewBox="0 0 112.51 103.193"><defs><style>.a,.x{fill:#fff;}.a{stroke:#707070;}.b{fill:#91e0e8;}.c{clip-path:url(#a);}.d{fill:#445ea0;}.e{fill:#2e4c89;}.f{fill:#293d7c;}.g{fill:#1a2b63;}.h{fill:#eef6ff;}.i{fill:#ff9518;}.j{fill:#28a5a5;}.k{fill:#1e99d6;}.l{fill:#fee97d;}.m{fill:#fed402;}.n{fill:#d8ecfe;}.o{fill:#26a6fe;}.p{fill:#fd4755;}.q{fill:#fb2b3a;}.r{fill:#0593fc;}.s{fill:#68ca44;}.t{fill:#4fc123;}.u{fill:#7a6d79;}.v{fill:#cbc4cc;}.w{fill:#b5adb6;}</style><clipPath id="a"><rect class="a" width="96" height="96" transform="translate(364 623)"/></clipPath></defs><g transform="translate(-1522.5 -613.479)"><g transform="translate(1165.5 -11.837)"><g transform="translate(364 625.317)"><circle class="b" cx="51.597" cy="51.597" r="51.597" transform="translate(2.317 0)"/></g></g><g transform="translate(485.5 -626.521)"><g class="c" transform="translate(673 621)"><g transform="translate(364 625.317)"><rect class="d" width="22.745" height="9.723" transform="translate(36.777 77.675)"/><rect class="e" width="4.179" height="9.723" transform="translate(36.777 77.675)"/><path class="f" d="M60.987,63.37a1.056,1.056,0,0,1-1.053,1.053H18.024a1.056,1.056,0,0,1-1.053-1.053V59.158a1.056,1.056,0,0,1,1.053-1.053h41.91a1.056,1.056,0,0,1,1.053,1.053Z" transform="translate(9.171 29.082)"/><path class="g" d="M21.15,63.37V59.158A1.056,1.056,0,0,1,22.2,58.105H18.024a1.056,1.056,0,0,0-1.053,1.053V63.37a1.056,1.056,0,0,0,1.053,1.053H22.2A1.056,1.056,0,0,1,21.15,63.37Z" transform="translate(9.171 29.082)"/><path class="f" d="M0,54.908c0,1.158,1.4,2.106,3.1,2.106H96.3v-14.1H0Z" transform="translate(0 20.873)"/><path class="g" d="M4.179,54.908V42.914H0V54.908a2.112,2.112,0,0,0,2.106,2.106H6.285A2.112,2.112,0,0,1,4.179,54.908Z" transform="translate(0 20.873)"/><path class="d" d="M65.322,56.341c0-.465-.465,5.875,0,5.875H96.3V9.9a2.322,2.322,0,0,0-2.315-2.315H2.315A2.322,2.322,0,0,0,0,9.9V62.216H65.322Z" transform="translate(0 1.782)"/><path class="h" d="M63.7,54.717a.843.843,0,0,1,.842-.842h25.5V11.643a1.056,1.056,0,0,0-1.053-1.053H4.059a1.056,1.056,0,0,0-1.053,1.053V54.908a1.056,1.056,0,0,0,1.053,1.053H63.7V54.717Z" transform="translate(1.624 3.406)"/><circle class="d" cx="2.93" cy="2.93" r="2.93" transform="translate(45.22 68.086)"/><path class="i" d="M38.072,33.957V18.643a1.056,1.056,0,0,1,1.053-1.053H34.946a1.056,1.056,0,0,0-1.053,1.053V33.957a1.056,1.056,0,0,0,1.053,1.053h4.179A1.056,1.056,0,0,1,38.072,33.957Z" transform="translate(18.315 7.189)"/><path class="j" d="M13.769,37.417V19.306a1.056,1.056,0,0,1,1.053-1.053H10.643A1.056,1.056,0,0,0,9.59,19.306V37.417a1.056,1.056,0,0,0,1.053,1.053h4.179A1.056,1.056,0,0,1,13.769,37.417Z" transform="translate(5.182 7.547)"/><g transform="translate(7.823 17.692)"><path class="k" d="M30.095,18.465V14.043a1.056,1.056,0,0,1,1.053-1.053H28.827a1.056,1.056,0,0,0-1.053,1.053v4.423a1.056,1.056,0,0,0,1.053,1.053h2.321A1.056,1.056,0,0,1,30.095,18.465Z" transform="translate(7.186 -12.99)"/><path class="k" d="M7.4,18.739V14.316a1.056,1.056,0,0,1,1.053-1.053H6.131a1.056,1.056,0,0,0-1.053,1.053v4.423a1.056,1.056,0,0,0,1.053,1.053H8.453A1.056,1.056,0,0,1,7.4,18.739Z" transform="translate(-5.078 -12.842)"/><path class="k" d="M30.095,37.588V33.166a1.056,1.056,0,0,1,1.053-1.053H28.827a1.056,1.056,0,0,0-1.053,1.053v4.423a1.056,1.056,0,0,0,1.053,1.053h2.321A1.056,1.056,0,0,1,30.095,37.588Z" transform="translate(7.186 -2.656)"/><path class="k" d="M7.4,37.588V33.166a1.056,1.056,0,0,1,1.053-1.053H6.131a1.056,1.056,0,0,0-1.053,1.053v4.423a1.056,1.056,0,0,0,1.053,1.053H8.453A1.056,1.056,0,0,1,7.4,37.588Z" transform="translate(-5.078 -2.656)"/></g></g></g></g><g transform="translate(1524.957 620.353)"><path class="l" d="M73.53,107.964a.909.909,0,0,1-.975-.819V66.231H10.193A2.314,2.314,0,0,0,7.707,68.32V114.5h90.26v-6.535Z" transform="translate(-5.916 -54.372)"/><g transform="translate(1.791 11.859)"><path class="m" d="M18.369,66.231H9.8A2.089,2.089,0,0,0,7.707,68.32V114.5h8.572V68.32A2.089,2.089,0,0,1,18.369,66.231Z" transform="translate(-7.707 -66.231)"/></g><path class="n" d="M346.4,184.137H311.643l-.6.179v19.622a1,1,0,0,0,1,1h33.949a1,1,0,0,0,1-1V184.316Z" transform="translate(-254.938 -151.166)"/><path class="o" d="M345.991,0H312.041a1,1,0,0,0-1,1V9.186l.589.179h34.775l.582-.179V1A1,1,0,0,0,345.991,0Z" transform="translate(-254.938)"/><g transform="translate(8.036 19.77)"><g transform="translate(1.343)"><path class="p" d="M106.324,110.413a7.08,7.08,0,0,0-7.08,7.08c0,.06,0,.119,0,.179h6.344a.744.744,0,0,1,.743.743v6.157a7.08,7.08,0,0,0-.012-14.159Z" transform="translate(-90.442 -110.413)"/><g transform="translate(8.802)"><path class="q" d="M109.164,111.007a7.08,7.08,0,0,0-9.921,6.485h5.682A7.081,7.081,0,0,1,109.164,111.007Z" transform="translate(-99.243 -110.412)"/></g><g transform="translate(0 7.08)"><path class="o" d="M65.238,166.024H51.009a.922.922,0,0,1-.922-.922V150.873a.922.922,0,0,1,.922-.922H65.238a.922.922,0,0,1,.922.922V165.1A.922.922,0,0,1,65.238,166.024Z" transform="translate(-50.087 -149.951)"/></g><g transform="translate(0 7.08)"><path class="r" d="M55.717,165.1V150.873a.922.922,0,0,1,.922-.922h-5.63a.922.922,0,0,0-.922.922V165.1a.922.922,0,0,0,.922.922h5.63A.922.922,0,0,1,55.717,165.1Z" transform="translate(-50.087 -149.951)"/></g><g transform="translate(23.272 8.002)"><path class="s" d="M187.86,155.564l-7.682,13.306a.922.922,0,0,0,.8,1.383h15.364a.922.922,0,0,0,.8-1.383l-7.682-13.306A.923.923,0,0,0,187.86,155.564Z" transform="translate(-180.053 -155.102)"/></g><g transform="translate(23.271 8.002)"><path class="t" d="M185.778,168.87l5.681-9.839-2-3.467a.922.922,0,0,0-1.6,0l-7.682,13.306a.922.922,0,0,0,.8,1.383h5.6A.922.922,0,0,1,185.778,168.87Z" transform="translate(-180.052 -155.103)"/></g></g><g transform="translate(0 29.467)"><g transform="translate(0 1.336)"><path class="u" d="M85.087,285.126H43.93a1.343,1.343,0,0,1,0-2.686H85.087a1.343,1.343,0,0,1,0,2.686Z" transform="translate(-42.587 -282.44)"/></g><g transform="translate(10.737)"><circle class="r" cx="2.679" cy="2.679" r="2.679"/></g></g></g><g transform="translate(56.105)"><path class="r" d="M319.566,1a1,1,0,0,1,1-1H312.04a1,1,0,0,0-1,1V9.186h8.524Z" transform="translate(-311.042)"/><g transform="translate(0 9.186)"><path class="v" d="M311.043,51.3h35.946V75.267H311.043Z" transform="translate(-311.043 -51.303)"/></g><g transform="translate(0 9.186)"><path class="w" d="M311.043,51.3h8.524V75.267h-8.524Z" transform="translate(-311.043 -51.303)"/></g><g transform="translate(3.983 3.35)"><circle class="p" cx="1.343" cy="1.343" r="1.343"/><g transform="translate(3.76)"><circle class="l" cx="1.343" cy="1.343" r="1.343"/></g><g transform="translate(7.52)"><circle class="s" cx="1.343" cy="1.343" r="1.343"/></g></g><g transform="translate(5.846 25.617)"><path class="x" d="M366.6,145.749H345.036a1.343,1.343,0,1,1,0-2.686H366.6a1.343,1.343,0,0,1,0,2.686Z" transform="translate(-343.693 -143.063)"/></g><g transform="translate(13.159 13.664)"><path class="x" d="M393.107,80.207l-7.585-3.825a.684.684,0,0,0-.992.611v7.649a.684.684,0,0,0,.992.611l7.585-3.825A.684.684,0,0,0,393.107,80.207Z" transform="translate(-384.53 -76.308)"/></g></g><g transform="translate(61.951 37.907)"><g transform="translate(0 6.94)"><path class="u" d="M366.6,253.144H345.036a1.343,1.343,0,1,1,0-2.686H366.6a1.343,1.343,0,0,1,0,2.686Z" transform="translate(-343.693 -250.458)"/></g><g transform="translate(0 0.963)"><path class="u" d="M366.6,219.765H345.036a1.343,1.343,0,1,1,0-2.686H366.6a1.343,1.343,0,0,1,0,2.686Z" transform="translate(-343.693 -217.079)"/></g><g transform="translate(15.406)"><circle class="x" cx="2.306" cy="2.306" r="2.306"/></g><g transform="translate(5.445 5.977)"><circle class="x" cx="2.306" cy="2.306" r="2.306"/></g></g></g></g></svg>