<svg xmlns="http://www.w3.org/2000/svg" xmlns:xlink="http://www.w3.org/1999/xlink" width="108" height="108" viewBox="0 0 108 108"><defs><style>.a{fill:#fff;stroke:#707070;}.b{clip-path:url(#a);}.c{fill:#91e0e8;}.d{fill:#445ea0;}.e{fill:#2e4c89;}.f{fill:#293d7c;}.g{fill:#1a2b63;}.h{fill:#eef6ff;}.i{fill:#ffaf10;}.j{fill:#ff9518;}.k{fill:#c3ddf4;}.l{fill:#ef8318;}.m{fill:#69cdff;}.n{fill:#5dc1d8;}.o{fill:#28a5a5;}.p{fill:#52bbef;}.q{fill:#1e99d6;}</style><clipPath id="a"><rect class="a" width="108" height="108" transform="translate(364 623)"/></clipPath></defs><g class="b" transform="translate(-364 -623)"><g transform="translate(364 625.317)"><circle class="c" cx="51.597" cy="51.597" r="51.597" transform="translate(2.317 0)"/><rect class="d" width="22.745" height="9.723" transform="translate(36.777 77.675)"/><rect class="e" width="4.179" height="9.723" transform="translate(36.777 77.675)"/><path class="f" d="M60.987,63.37a1.056,1.056,0,0,1-1.053,1.053H18.024a1.056,1.056,0,0,1-1.053-1.053V59.158a1.056,1.056,0,0,1,1.053-1.053h41.91a1.056,1.056,0,0,1,1.053,1.053Z" transform="translate(9.171 29.082)"/><path class="g" d="M21.15,63.37V59.158A1.056,1.056,0,0,1,22.2,58.105H18.024a1.056,1.056,0,0,0-1.053,1.053V63.37a1.056,1.056,0,0,0,1.053,1.053H22.2A1.056,1.056,0,0,1,21.15,63.37Z" transform="translate(9.171 29.082)"/><path class="f" d="M0,54.908a2.112,2.112,0,0,0,2.106,2.106H65.322v-14.1H0Z" transform="translate(0 20.873)"/><path class="g" d="M4.179,54.908V42.914H0V54.908a2.112,2.112,0,0,0,2.106,2.106H6.285A2.112,2.112,0,0,1,4.179,54.908Z" transform="translate(0 20.873)"/><path class="d" d="M65.322,56.341a.843.843,0,0,1,.842-.842H96.3V9.9a2.322,2.322,0,0,0-2.315-2.315H2.315A2.322,2.322,0,0,0,0,9.9V62.216H65.322Z" transform="translate(0 1.782)"/><path class="h" d="M63.7,54.717a.843.843,0,0,1,.842-.842h25.5V11.643a1.056,1.056,0,0,0-1.053-1.053H4.059a1.056,1.056,0,0,0-1.053,1.053V54.908a1.056,1.056,0,0,0,1.053,1.053H63.7V54.717Z" transform="translate(1.624 3.406)"/><circle class="d" cx="2.93" cy="2.93" r="2.93" transform="translate(45.22 68.086)"/><path class="i" d="M69.37,33.957a1.056,1.056,0,0,1-1.053,1.053H34.946a1.056,1.056,0,0,1-1.053-1.053V18.643a1.056,1.056,0,0,1,1.053-1.053H68.317a1.056,1.056,0,0,1,1.053,1.053V33.957Z" transform="translate(18.315 7.189)"/><path class="j" d="M38.072,33.957V18.643a1.056,1.056,0,0,1,1.053-1.053H34.946a1.056,1.056,0,0,0-1.053,1.053V33.957a1.056,1.056,0,0,0,1.053,1.053h4.179A1.056,1.056,0,0,1,38.072,33.957Z" transform="translate(18.315 7.189)"/><g transform="translate(52.366 45.094)"><path class="k" d="M44.654,33.937H35.575a1.579,1.579,0,1,1,0-3.159h9.079a1.579,1.579,0,0,1,0,3.159Z" transform="translate(-33.996 -30.778)"/><path class="k" d="M44.654,37.054H35.575a1.579,1.579,0,1,1,0-3.159h9.079a1.579,1.579,0,0,1,0,3.159Z" transform="translate(-33.996 -29.094)"/><path class="k" d="M50.949,33.937H44.2a1.579,1.579,0,1,1,0-3.159h6.752a1.579,1.579,0,1,1,0,3.159Z" transform="translate(-29.336 -30.778)"/><path class="k" d="M50.949,37.054H44.2a1.579,1.579,0,1,1,0-3.159h6.752a1.579,1.579,0,1,1,0,3.159Z" transform="translate(-29.336 -29.094)"/><path class="k" d="M59.868,33.937h-8.6a1.579,1.579,0,0,1,0-3.159h8.6a1.579,1.579,0,1,1,0,3.159Z" transform="translate(-25.516 -30.778)"/><path class="k" d="M59.868,37.054h-8.6a1.579,1.579,0,0,1,0-3.159h8.6a1.579,1.579,0,1,1,0,3.159Z" transform="translate(-25.516 -29.094)"/></g><g transform="translate(71.259 17.708)"><path class="l" d="M50.683,16.369a1.056,1.056,0,0,1-1.053,1.053H47.314a1.056,1.056,0,0,1-1.053-1.053V14.053A1.056,1.056,0,0,1,47.314,13H49.63a1.056,1.056,0,0,1,1.053,1.053Z" transform="translate(-46.261 -13)"/><path class="l" d="M54.511,16.369a1.056,1.056,0,0,1-1.053,1.053H51.142a1.056,1.056,0,0,1-1.053-1.053V14.053A1.056,1.056,0,0,1,51.142,13h2.316a1.056,1.056,0,0,1,1.053,1.053Z" transform="translate(-44.193 -13)"/><path class="l" d="M58.339,16.369a1.056,1.056,0,0,1-1.053,1.053H54.97a1.056,1.056,0,0,1-1.053-1.053V14.053A1.056,1.056,0,0,1,54.97,13h2.316a1.056,1.056,0,0,1,1.053,1.053Z" transform="translate(-42.124 -13)"/></g><g transform="translate(8.981 20.008)"><path class="m" d="M27.318,36.246h-1.9a1.579,1.579,0,1,1,0-3.159h1.9a1.579,1.579,0,1,1,0,3.159Z" transform="translate(3.903 -4.445)"/><path class="m" d="M22.67,36.246h-1.9a1.579,1.579,0,0,1,0-3.159h1.9a1.579,1.579,0,0,1,0,3.159Z" transform="translate(1.391 -4.445)"/><path class="m" d="M18.021,36.246h-1.9a1.579,1.579,0,1,1,0-3.159h1.9a1.579,1.579,0,0,1,0,3.159Z" transform="translate(-1.121 -4.445)"/><path class="m" d="M13.373,36.246h-1.9a1.579,1.579,0,1,1,0-3.159h1.9a1.579,1.579,0,0,1,0,3.159Z" transform="translate(-3.633 -4.445)"/><path class="m" d="M30.652,32.686a1.579,1.579,0,0,1-1.579-1.58v-1.9a1.579,1.579,0,0,1,3.159,0v1.9A1.579,1.579,0,0,1,30.652,32.686Z" transform="translate(6.729 -7.393)"/><path class="m" d="M30.652,28.038a1.579,1.579,0,0,1-1.579-1.579v-1.9a1.579,1.579,0,0,1,3.159,0v1.9A1.579,1.579,0,0,1,30.652,28.038Z" transform="translate(6.729 -9.905)"/><path class="m" d="M30.652,23.389a1.579,1.579,0,0,1-1.579-1.579v-1.9a1.579,1.579,0,1,1,3.159,0v1.9A1.579,1.579,0,0,1,30.652,23.389Z" transform="translate(6.729 -12.417)"/><path class="m" d="M7.41,32.686a1.579,1.579,0,0,1-1.579-1.58v-1.9a1.579,1.579,0,0,1,3.159,0v1.9A1.579,1.579,0,0,1,7.41,32.686Z" transform="translate(-5.831 -7.393)"/><path class="m" d="M7.41,28.038a1.579,1.579,0,0,1-1.579-1.579v-1.9a1.579,1.579,0,0,1,3.159,0v1.9A1.579,1.579,0,0,1,7.41,28.038Z" transform="translate(-5.831 -9.905)"/><path class="m" d="M7.41,23.389A1.579,1.579,0,0,1,5.831,21.81v-1.9a1.579,1.579,0,1,1,3.159,0v1.9A1.579,1.579,0,0,1,7.41,23.389Z" transform="translate(-5.831 -12.417)"/><path class="m" d="M27.318,17.652h-1.9a1.579,1.579,0,1,1,0-3.159h1.9a1.579,1.579,0,1,1,0,3.159Z" transform="translate(3.903 -14.493)"/><path class="m" d="M22.67,17.652h-1.9a1.579,1.579,0,0,1,0-3.159h1.9a1.579,1.579,0,0,1,0,3.159Z" transform="translate(1.391 -14.493)"/><path class="m" d="M18.021,17.652h-1.9a1.579,1.579,0,1,1,0-3.159h1.9a1.579,1.579,0,0,1,0,3.159Z" transform="translate(-1.121 -14.493)"/><path class="m" d="M13.373,17.652h-1.9a1.579,1.579,0,0,1,0-3.159h1.9a1.579,1.579,0,0,1,0,3.159Z" transform="translate(-3.633 -14.493)"/></g><path class="n" d="M36.968,37.417a1.056,1.056,0,0,1-1.053,1.053H10.644a1.056,1.056,0,0,1-1.053-1.053V19.306a1.056,1.056,0,0,1,1.053-1.053H35.915a1.056,1.056,0,0,1,1.053,1.053Z" transform="translate(5.183 7.547)"/><path class="o" d="M13.769,37.417V19.306a1.056,1.056,0,0,1,1.053-1.053H10.643A1.056,1.056,0,0,0,9.59,19.306V37.417a1.056,1.056,0,0,0,1.053,1.053h4.179A1.056,1.056,0,0,1,13.769,37.417Z" transform="translate(5.182 7.547)"/><g transform="translate(7.823 17.692)"><path class="p" d="M34.3,18.465a1.056,1.056,0,0,1-1.053,1.053H28.827a1.056,1.056,0,0,1-1.053-1.053V14.043a1.056,1.056,0,0,1,1.053-1.053h4.423A1.056,1.056,0,0,1,34.3,14.043Z" transform="translate(7.186 -12.99)"/><path class="p" d="M11.607,18.739a1.056,1.056,0,0,1-1.053,1.053H6.131a1.056,1.056,0,0,1-1.053-1.053V14.316a1.056,1.056,0,0,1,1.053-1.053h4.423a1.056,1.056,0,0,1,1.053,1.053Z" transform="translate(-5.078 -12.842)"/><path class="p" d="M34.3,37.588a1.056,1.056,0,0,1-1.053,1.053H28.827a1.056,1.056,0,0,1-1.053-1.053V33.166a1.056,1.056,0,0,1,1.053-1.053h4.423A1.056,1.056,0,0,1,34.3,33.166Z" transform="translate(7.186 -2.656)"/><path class="p" d="M11.607,37.588a1.056,1.056,0,0,1-1.053,1.053H6.131a1.056,1.056,0,0,1-1.053-1.053V33.166a1.056,1.056,0,0,1,1.053-1.053h4.423a1.056,1.056,0,0,1,1.053,1.053Z" transform="translate(-5.078 -2.656)"/></g><g transform="translate(7.823 17.692)"><path class="q" d="M30.095,18.465V14.043a1.056,1.056,0,0,1,1.053-1.053H28.827a1.056,1.056,0,0,0-1.053,1.053v4.423a1.056,1.056,0,0,0,1.053,1.053h2.321A1.056,1.056,0,0,1,30.095,18.465Z" transform="translate(7.186 -12.99)"/><path class="q" d="M7.4,18.739V14.316a1.056,1.056,0,0,1,1.053-1.053H6.131a1.056,1.056,0,0,0-1.053,1.053v4.423a1.056,1.056,0,0,0,1.053,1.053H8.453A1.056,1.056,0,0,1,7.4,18.739Z" transform="translate(-5.078 -12.842)"/><path class="q" d="M30.095,37.588V33.166a1.056,1.056,0,0,1,1.053-1.053H28.827a1.056,1.056,0,0,0-1.053,1.053v4.423a1.056,1.056,0,0,0,1.053,1.053h2.321A1.056,1.056,0,0,1,30.095,37.588Z" transform="translate(7.186 -2.656)"/><path class="q" d="M7.4,37.588V33.166a1.056,1.056,0,0,1,1.053-1.053H6.131a1.056,1.056,0,0,0-1.053,1.053v4.423a1.056,1.056,0,0,0,1.053,1.053H8.453A1.056,1.056,0,0,1,7.4,37.588Z" transform="translate(-5.078 -2.656)"/></g><path class="n" d="M68.865,56.409a.293.293,0,0,1-.025-.156h.025a.383.383,0,0,1,.129.028l8.867,3.257V39.606a1.056,1.056,0,0,0-1.053-1.053H43.323a1.056,1.056,0,0,0-1.053,1.053V63.783a1.056,1.056,0,0,0,1.053,1.053H71.96Z" transform="translate(22.842 18.517)"/><path class="o" d="M46.449,63.783V39.606A1.056,1.056,0,0,1,47.5,38.553H43.323a1.056,1.056,0,0,0-1.053,1.053V63.783a1.056,1.056,0,0,0,1.053,1.053H47.5A1.056,1.056,0,0,1,46.449,63.783Z" transform="translate(22.842 18.517)"/><path class="f" d="M59.821,49.947c-.347-.127-.527.052-.4.4l5.552,15.117a.4.4,0,0,0,.707.156l2.948-2.948a.675.675,0,0,1,.951,0l3.4,3.4a.674.674,0,0,0,.951,0l1.616-1.616a.674.674,0,0,0,0-.951l-3.4-3.4a.674.674,0,0,1,0-.951l2.948-2.948a.4.4,0,0,0-.156-.707Z" transform="translate(32.088 24.652)"/></g></g></svg>