<svg xmlns="http://www.w3.org/2000/svg" width="109.932" height="108" viewBox="0 0 109.932 108"><defs><style>.a{fill:#91e0e8;}.b{fill:#445ea0;}.c{fill:#293d7c;}.d{fill:#eef6ff;}.e{fill:#fe3745;}.f{fill:#b7092b;}.g{fill:#d9eafc;}.h{fill:#52bbef;}.i{fill:#1e99d6;}.j{fill:#fff;}.k{fill:#ffe2b8;}.l{fill:#ffc987;}.m{fill:#1a2b63;}.n{fill:#aec1ed;}.o{fill:#ffaf10;}.p{fill:#ef9614;}.q{fill:#ffd00d;}</style></defs><g transform="translate(0 -4.5)"><circle class="a" cx="52.604" cy="52.604" r="52.604" transform="translate(0 7.291)"/><path class="b" d="M12.239,159.831H4.832A52.4,52.4,0,0,0,0,181.875q0,1.4.073,2.787H12.239Z" transform="translate(0 -121.98)"/><path class="c" d="M398.5,338.75h-4.615v17.364H398.5a2.153,2.153,0,0,0,2.147-2.147V340.9A2.153,2.153,0,0,0,398.5,338.75Z" transform="translate(-309.31 -262.483)"/><path class="d" d="M281.707,296.225V315.2l17.764,10.6V285.626Z" transform="translate(-221.221 -220.765)"/><path class="e" d="M370.192,312.85a1.077,1.077,0,0,1-1.074,1.074h-4.6a1.077,1.077,0,0,1-1.074-1.074v-46.97a1.077,1.077,0,0,1,1.074-1.074h4.6a1.077,1.077,0,0,1,1.074,1.074Z" transform="translate(-285.406 -204.416)"/><path class="f" d="M367.128,312.85v-46.97a1.077,1.077,0,0,1,1.074-1.074h-3.688a1.077,1.077,0,0,0-1.074,1.074v46.97a1.077,1.077,0,0,0,1.074,1.074H368.2A1.077,1.077,0,0,1,367.128,312.85Z" transform="translate(-285.405 -204.416)"/><path class="d" d="M168.788,342.151h-4.977a1.077,1.077,0,0,0-1.074,1.074v13.756a1.077,1.077,0,0,0,1.074,1.074h4.977Z" transform="translate(-127.795 -265.153)"/><path class="g" d="M165.852,356.982V343.226a1.077,1.077,0,0,1,1.074-1.074h-3.115a1.077,1.077,0,0,0-1.074,1.074v13.756a1.077,1.077,0,0,0,1.074,1.074h3.115A1.077,1.077,0,0,1,165.852,356.982Z" transform="translate(-127.795 -265.154)"/><path class="e" d="M209.841,349.766a1.077,1.077,0,0,1-1.074,1.074H190.992a1.077,1.077,0,0,1-1.074-1.074V330.58a1.077,1.077,0,0,1,1.074-1.074h17.776a1.077,1.077,0,0,1,1.074,1.074Z" transform="translate(-149.14 -255.223)"/><path class="f" d="M194.179,349.766V330.58a1.077,1.077,0,0,1,1.074-1.074h-4.261a1.077,1.077,0,0,0-1.074,1.074v19.186a1.077,1.077,0,0,0,1.074,1.074h4.261A1.077,1.077,0,0,1,194.179,349.766Z" transform="translate(-149.14 -255.223)"/><path class="h" d="M369.52,81.215a1.077,1.077,0,0,0-1.074-1.074h-29.3a1.077,1.077,0,0,0-1.074,1.074V101.6a1.077,1.077,0,0,0,1.074,1.074h8.844a2.421,2.421,0,0,1,1.716.86l3.446,4.609a.76.76,0,0,0,1.286,0l3.446-4.609a2.422,2.422,0,0,1,1.716-.86h8.844a1.077,1.077,0,0,0,1.074-1.074V81.215Z" transform="translate(-265.486 -59.4)"/><path class="i" d="M342.336,101.6V81.215a1.077,1.077,0,0,1,1.074-1.074h-4.261a1.077,1.077,0,0,0-1.074,1.074V101.6a1.077,1.077,0,0,0,1.074,1.074h4.261A1.077,1.077,0,0,1,342.336,101.6Z" transform="translate(-265.486 -59.4)"/><g transform="translate(77.502 25.486)"><path class="j" d="M380.967,105.461h-18.4a1.61,1.61,0,0,1,0-3.221h18.4a1.61,1.61,0,0,1,0,3.221Z" transform="translate(-360.959 -102.24)"/><path class="j" d="M380.967,128.713h-18.4a1.61,1.61,0,0,1,0-3.221h18.4a1.61,1.61,0,0,1,0,3.221Z" transform="translate(-360.959 -120.5)"/><path class="j" d="M371.8,151.964h-9.235a1.61,1.61,0,0,1,0-3.221H371.8a1.61,1.61,0,0,1,0,3.221Z" transform="translate(-360.959 -138.758)"/></g><circle class="e" cx="11.939" cy="11.939" r="11.939" transform="translate(45.606 4.501)"/><path class="f" d="M216.661,16.439A11.94,11.94,0,0,1,226.47,4.693a11.939,11.939,0,1,0,0,23.492A11.94,11.94,0,0,1,216.661,16.439Z" transform="translate(-166.796)"/><path class="j" d="M241.544,46.434a.72.72,0,0,1-.514-.214l-5.64-5.687a3.66,3.66,0,0,1,0-5.141,3.584,3.584,0,0,1,5.1,0l1.075,1.085,1.076-1.085a3.584,3.584,0,0,1,5.1,0,3.657,3.657,0,0,1,0,5.141l-5.684,5.689A.717.717,0,0,1,241.544,46.434Z" transform="translate(-184.021 -23.423)"/><path class="e" d="M54.919,331.049a.608.608,0,0,1-.434-.181l-4.761-4.8a3.089,3.089,0,0,1,0-4.34,3.026,3.026,0,0,1,4.3,0l.908.916.908-.916a3.026,3.026,0,0,1,4.3,0,3.087,3.087,0,0,1,0,4.34l-4.8,4.8A.6.6,0,0,1,54.919,331.049Z" transform="translate(-38.35 -248.41)"/><path class="f" d="M52.126,325.065a3.083,3.083,0,0,1-.1-4.229c-.049,0-.1-.007-.149-.007a3.009,3.009,0,0,0-2.152.9,3.089,3.089,0,0,0,0,4.34l4.761,4.8a.609.609,0,0,0,.865,0l1.27-1.271Z" transform="translate(-38.35 -248.409)"/><path class="k" d="M131.744,103.413V100.45a3.009,3.009,0,0,1,3.006-3.006h.695a.215.215,0,1,0,0-.429,3.009,3.009,0,0,1-3.006-3.006V91.045a3.009,3.009,0,0,1,3.006-3.006.215.215,0,1,0,0-.429,3.009,3.009,0,0,1-3.006-3.006V81.639a3.009,3.009,0,0,1,3.006-3.006.215.215,0,1,0,0-.429h-1.327a3.009,3.009,0,0,1-3.006-3.006V72.234a3.009,3.009,0,0,1,2.465-2.955V57.741a3.23,3.23,0,0,0-3.221-3.221h-5.009a3.806,3.806,0,0,0-3.656,3.191l-2.018,14.806c-.239,1.748-1.5,3.179-2.811,3.19V103.62h14.892C131.749,103.552,131.744,103.484,131.744,103.413Z" transform="translate(-91.77 -39.28)"/><path class="l" d="M130.357,54.52h-5.009a3.806,3.806,0,0,0-3.656,3.191l-2.018,14.806c-.239,1.748-1.5,3.179-2.811,3.19v4.262h4.245c1.315,0,2.586-1.436,2.826-3.191l2.018-14.806a3.806,3.806,0,0,1,3.656-3.191h3.97v-1.04A3.23,3.23,0,0,0,130.357,54.52Z" transform="translate(-91.771 -39.28)"/><path class="k" d="M188.393,262.838a3.23,3.23,0,0,1-3.221-3.221v-2.964a3.23,3.23,0,0,1,3.221-3.221h17.467a3.23,3.23,0,0,1,3.221,3.221v2.964a3.23,3.23,0,0,1-3.221,3.221Z" transform="translate(-145.413 -195.484)"/><path class="c" d="M57.074,170.967A1.077,1.077,0,0,1,56,169.894V136.9a1.077,1.077,0,0,1,1.074-1.074H68.209a1.077,1.077,0,0,1,1.074,1.074v32.99a1.077,1.077,0,0,1-1.074,1.074H57.074Z" transform="translate(-43.976 -103.132)"/><path class="m" d="M60.261,169.894V136.9a1.077,1.077,0,0,1,1.074-1.074H57.074A1.077,1.077,0,0,0,56,136.9v32.99a1.077,1.077,0,0,0,1.074,1.074h4.261A1.076,1.076,0,0,1,60.261,169.894Z" transform="translate(-43.976 -103.132)"/><circle class="n" cx="2.874" cy="2.874" r="2.874" transform="translate(15.791 35.082)"/><g transform="translate(39.127 29.733)"><path class="k" d="M185.451,131.426a3.23,3.23,0,0,1-3.221-3.221v-2.964a3.23,3.23,0,0,1,3.221-3.221h18.1a3.23,3.23,0,0,1,3.221,3.221v2.964a3.23,3.23,0,0,1-3.221,3.221Z" transform="translate(-182.23 -122.021)"/><path class="k" d="M191.629,175.231a3.23,3.23,0,0,1-3.221-3.221v-2.964a3.23,3.23,0,0,1,3.221-3.221h17.556a3.23,3.23,0,0,1,3.221,3.221v2.964a3.23,3.23,0,0,1-3.221,3.221Z" transform="translate(-187.081 -156.421)"/><path class="k" d="M191.629,219.036a3.23,3.23,0,0,1-3.221-3.221v-2.964a3.23,3.23,0,0,1,3.221-3.221h17.556a3.23,3.23,0,0,1,3.221,3.221v2.964a3.23,3.23,0,0,1-3.221,3.221Z" transform="translate(-187.081 -190.82)"/></g><g transform="translate(39.127 29.733)"><path class="l" d="M191.708,259.523a3.23,3.23,0,0,1-3.221-3.221v-2.869h-.095a3.23,3.23,0,0,0-3.221,3.221v2.964a3.23,3.23,0,0,0,3.221,3.221h17.467a3.23,3.23,0,0,0,3.221-3.221v-.095H191.708Z" transform="translate(-184.54 -225.218)"/><path class="l" d="M188.766,128.112a3.23,3.23,0,0,1-3.221-3.221v-2.869h-.095a3.23,3.23,0,0,0-3.221,3.221v2.964a3.23,3.23,0,0,0,3.221,3.221h18.1a3.23,3.23,0,0,0,3.221-3.221v-.095h-18Z" transform="translate(-182.23 -122.022)"/><path class="l" d="M194.945,171.916a3.23,3.23,0,0,1-3.221-3.221v-2.869h-.095a3.23,3.23,0,0,0-3.221,3.221v2.964a3.23,3.23,0,0,0,3.221,3.221h17.556a3.23,3.23,0,0,0,3.221-3.221v-.095Z" transform="translate(-187.082 -156.421)"/><path class="l" d="M194.945,215.72a3.23,3.23,0,0,1-3.221-3.221v-2.869h-.095a3.23,3.23,0,0,0-3.221,3.221v2.964a3.23,3.23,0,0,0,3.221,3.221h17.556a3.23,3.23,0,0,0,3.221-3.221v-.095H194.945Z" transform="translate(-187.082 -190.82)"/></g><path class="o" d="M50.173,389.646H30.966a.429.429,0,0,0-.427.429V402.4a.429.429,0,0,0,.427.429H50.173a.429.429,0,0,0,.427-.429V390.075A.429.429,0,0,0,50.173,389.646Z" transform="translate(-23.982 -302.451)"/><path class="p" d="M34.8,402.732v-9.387l-4.157-3.213a.431.431,0,0,1,.064-.062.427.427,0,0,0-.167.338v12.324a.429.429,0,0,0,.427.429h4.26A.429.429,0,0,1,34.8,402.732Z" transform="translate(-23.983 -302.784)"/><path class="q" d="M50.549,389.646H31.342a.424.424,0,0,0-.324.153l9.589,7.411a.584.584,0,0,0,.677,0l9.589-7.411A.422.422,0,0,0,50.549,389.646Z" transform="translate(-24.358 -302.451)"/><path class="o" d="M438.2,232.153H418.994a.429.429,0,0,0-.427.429v12.324a.429.429,0,0,0,.427.429H438.2a.429.429,0,0,0,.427-.429V232.582A.429.429,0,0,0,438.2,232.153Z" transform="translate(-328.696 -178.773)"/><path class="p" d="M422.827,245.24v-9.387l-4.157-3.213a.429.429,0,0,1,.064-.062.427.427,0,0,0-.167.338V245.24a.429.429,0,0,0,.427.429h4.26A.429.429,0,0,1,422.827,245.24Z" transform="translate(-328.696 -179.107)"/><path class="q" d="M438.577,232.153H419.37a.424.424,0,0,0-.324.153l9.589,7.411a.584.584,0,0,0,.677,0l9.589-7.411A.424.424,0,0,0,438.577,232.153Z" transform="translate(-329.072 -178.773)"/></g></svg>