<svg xmlns="http://www.w3.org/2000/svg" xmlns:xlink="http://www.w3.org/1999/xlink" width="177" height="75" viewBox="0 0 177 75"><defs><style>.a{fill:#f9f9ff;stroke:#000;}.b{clip-path:url(#a);}</style><clipPath id="a"><rect class="a" width="177" height="75" transform="translate(1501 1208)"/></clipPath></defs><g class="b" transform="translate(-1501 -1208)"><g transform="translate(1501.409 1208)"><path d="M33.4,9.668A13.493,13.493,0,0,0,36.475,0a13.923,13.923,0,0,0-8.936,4.541c-1.9,2.2-3.662,5.859-3.223,9.229,3.516.439,6.885-1.465,9.082-4.1m3.076,4.98c-4.98-.293-9.229,2.783-11.572,2.783s-6.006-2.637-9.961-2.637A14.7,14.7,0,0,0,2.49,22.412C-2.783,31.641,1.025,45.264,6.3,52.734c2.49,3.662,5.566,7.764,9.521,7.617,3.809-.146,5.273-2.49,9.814-2.49s5.859,2.49,9.961,2.344,6.738-3.662,9.229-7.471a29.5,29.5,0,0,0,4.1-8.5c-.146-.146-8.057-3.076-8.057-12.158a13.293,13.293,0,0,1,6.445-11.426c-3.369-5.273-8.936-5.859-10.84-6.006"/><path d="M79.541,4.248c10.84,0,18.311,7.471,18.311,18.164,0,10.84-7.617,18.311-18.6,18.311H67.383v18.9H58.74V4.248Zm-12.158,29.3H77.2c7.471,0,11.719-4.1,11.719-10.986,0-7.031-4.248-10.986-11.719-10.986H67.236V33.545ZM100.049,48.34c0-7.031,5.42-11.426,15.088-12.012l11.133-.586V32.666c0-4.541-3.076-7.178-8.057-7.178-4.834,0-7.764,2.344-8.5,5.859h-7.91c.439-7.324,6.738-12.744,16.7-12.744,9.814,0,16.113,5.127,16.113,13.33V59.766h-7.91V53.174h-.146A14.354,14.354,0,0,1,113.818,60.5C105.615,60.5,100.049,55.518,100.049,48.34Zm26.221-3.662V41.455l-9.961.586c-4.98.293-7.764,2.49-7.764,6.006s2.93,5.859,7.324,5.859c5.859,0,10.4-3.955,10.4-9.229Zm15.674,30.029V67.969a15.921,15.921,0,0,0,2.637.146c3.809,0,5.859-1.611,7.178-5.713,0-.146.732-2.49.732-2.49l-14.648-40.43h8.936l10.254,32.959h.146l10.254-32.959h8.789L161.133,62.109C157.617,71.924,153.662,75,145.313,75c-.586-.146-2.637-.146-3.369-.293Z"/></g></g></svg>