<svg xmlns="http://www.w3.org/2000/svg" width="28.069" height="18.111" viewBox="0 0 28.069 18.111"><defs><style>.a{fill:#d7373f;}</style></defs><path class="a" d="M-48.014,11.6a1.233,1.233,0,0,0-.009,1.736l5.735,5.744-22.74.009a1.222,1.222,0,0,0-1.217,1.226,1.222,1.222,0,0,0,1.217,1.226l22.73-.009-5.735,5.744a1.241,1.241,0,0,0,.009,1.736A1.221,1.221,0,0,0-46.3,29l7.772-7.829h0a1.377,1.377,0,0,0,.255-.387,1.17,1.17,0,0,0,.094-.472,1.229,1.229,0,0,0-.349-.858L-46.3,11.627A1.2,1.2,0,0,0-48.014,11.6Z" transform="translate(66.245 -11.252)"/></svg>