<svg xmlns="http://www.w3.org/2000/svg" xmlns:xlink="http://www.w3.org/1999/xlink" width="49" height="49" viewBox="0 0 49 49"><defs><style>.a,.d{fill:#fff;}.a{stroke:#707070;}.b{fill:#b7092b;}.c{clip-path:url(#a);}</style><clipPath id="a"><rect class="a" width="29" height="29" transform="translate(937 510)"/></clipPath></defs><circle class="b" cx="24.5" cy="24.5" r="24.5"/><g class="c" transform="translate(-927 -500)"><g transform="translate(937 514.482)"><path class="d" d="M26.892,7.5H1.793A1.793,1.793,0,0,0,0,9.293v1.02l14.342,6.074,14.342-6.076V9.293A1.793,1.793,0,0,0,26.892,7.5Z" transform="translate(0 -7.5)"/><g transform="translate(0 4.76)"><path class="d" d="M14.692,21.39a.888.888,0,0,1-.7,0L0,15.465V28.633a1.793,1.793,0,0,0,1.793,1.793h25.1a1.793,1.793,0,0,0,1.793-1.793V15.465Z" transform="translate(0 -15.465)"/></g></g></g></svg>