<svg xmlns="http://www.w3.org/2000/svg" width="24" height="18.328" viewBox="0 0 24 18.328"><defs><style>.a{fill:#d0d0d0;}</style></defs><g transform="translate(0 -60.5)"><g transform="translate(0 60.5)"><path class="a" d="M23.27,75.189c.518,0,.73-4.281.73-4.8V64.25a3.754,3.754,0,0,0-3.75-3.75H3.75A3.754,3.754,0,0,0,0,64.25V75.078a3.754,3.754,0,0,0,3.75,3.75h16.5A3.754,3.754,0,0,0,24,75.078V70.391l-.937-.345-.937,1.987v3.046a1.877,1.877,0,0,1-1.875,1.875H3.75a1.877,1.877,0,0,1-1.875-1.875V64.449l8.145,5.065a3.727,3.727,0,0,0,3.96,0l8.145-5.065v7.692ZM12.99,67.921a1.863,1.863,0,0,1-1.98,0L2.657,62.727a1.865,1.865,0,0,1,1.093-.352h16.5a1.865,1.865,0,0,1,1.093.352Z" transform="translate(0 -60.5)"/></g></g></svg>