<svg xmlns="http://www.w3.org/2000/svg" xmlns:xlink="http://www.w3.org/1999/xlink" width="79" height="79" viewBox="0 0 79 79"><defs><style>.a,.h{fill:#fff;}.a{stroke:#707070;}.b{clip-path:url(#a);}.c{fill:#91e0e8;}.d{fill:#1ba0ae;}.e{fill:#cd2a00;}.f{fill:#d8d7da;}.g{fill:#ff3501;}</style><clipPath id="a"><rect class="a" width="79" height="79"/></clipPath></defs><g transform="translate(-673 -3048)"><g class="b" transform="translate(673 3048)"><g transform="translate(1.708 1.708)"><circle class="c" cx="38.04" cy="38.04" r="38.04" transform="translate(0 0)"/></g></g><g transform="translate(687.746 3055.373)"><ellipse class="d" cx="15.192" cy="2.026" rx="15.192" ry="2.026" transform="translate(9.562 62.512)"/><g transform="translate(0 0)"><path class="e" d="M243.15,0V13.886a10.641,10.641,0,0,1,0,21.282V64.683L262.627,40.2a24.552,24.552,0,0,0,5.346-15.373A24.851,24.851,0,0,0,243.15,0Z" transform="translate(-218.327)"/><path class="f" d="M253.791,115.041A10.652,10.652,0,0,0,243.15,104.4v21.282A10.653,10.653,0,0,0,253.791,115.041Z" transform="translate(-218.327 -90.514)"/><path class="g" d="M70.712,24.527A10.652,10.652,0,0,1,81.353,13.886V0A24.851,24.851,0,0,0,56.53,24.823,24.552,24.552,0,0,0,61.881,40.2L81.353,64.683V35.168A10.653,10.653,0,0,1,70.712,24.527Z" transform="translate(-56.53)"/><path class="h" d="M163.15,115.041a10.653,10.653,0,0,0,10.641,10.641V104.4A10.652,10.652,0,0,0,163.15,115.041Z" transform="translate(-148.968 -90.514)"/></g></g></g></svg>