<svg xmlns="http://www.w3.org/2000/svg" xmlns:xlink="http://www.w3.org/1999/xlink" width="49" height="49" viewBox="0 0 49 49"><defs><style>.a,.d{fill:#fff;}.a{stroke:#707070;}.b{fill:#b7092b;}.c{clip-path:url(#a);}</style><clipPath id="a"><rect class="a" width="29" height="29" transform="translate(569 520)"/></clipPath></defs><circle class="b" cx="24.5" cy="24.5" r="24.5"/><g class="c" transform="translate(-559 -510)"><g transform="translate(568.998 520)"><path class="d" d="M14.5,0A10.889,10.889,0,0,0,3.626,10.877c0,7.664,9.613,17.365,10.022,17.774a1.22,1.22,0,0,0,1.709,0c.409-.409,10.022-10.11,10.022-17.774A10.889,10.889,0,0,0,14.5,0Zm0,18.128a7.251,7.251,0,1,1,7.251-7.251A7.251,7.251,0,0,1,14.5,18.128Z"/></g></g></svg>