<svg xmlns="http://www.w3.org/2000/svg" xmlns:xlink="http://www.w3.org/1999/xlink" width="36" height="36" viewBox="0 0 36 36"><defs><style>.a,.d{fill:#fff;}.a{stroke:#707070;}.b{fill:none;}.c{clip-path:url(#a);}.e,.f{stroke:none;}.f{fill:#fff;}</style><clipPath id="a"><rect class="a" width="15" height="15" transform="translate(0 0.001)"/></clipPath></defs><g class="b"><path class="e" d="M18,0A18,18,0,1,1,0,18,18,18,0,0,1,18,0Z"/><path class="f" d="M 18 2 C 13.72624969482422 2 9.70829963684082 3.664291381835938 6.686290740966797 6.686290740966797 C 3.664291381835938 9.70829963684082 2 13.72624969482422 2 18 C 2 22.27375030517578 3.664291381835938 26.29170036315918 6.686290740966797 29.3137092590332 C 9.70829963684082 32.33570861816406 13.72624969482422 34 18 34 C 22.27375030517578 34 26.29170036315918 32.33570861816406 29.3137092590332 29.3137092590332 C 32.33570861816406 26.29170036315918 34 22.27375030517578 34 18 C 34 13.72624969482422 32.33570861816406 9.70829963684082 29.3137092590332 6.686290740966797 C 26.29170036315918 3.664291381835938 22.27375030517578 2 18 2 M 18 0 C 27.94112014770508 0 36 8.058879852294922 36 18 C 36 27.94112014770508 27.94112014770508 36 18 36 C 8.058879852294922 36 0 27.94112014770508 0 18 C 0 8.058879852294922 8.058879852294922 0 18 0 Z"/></g><g class="c" transform="translate(11 11)"><g transform="translate(0 0)"><path class="d" d="M10.313,0H4.688A4.688,4.688,0,0,0,0,4.688v5.625A4.688,4.688,0,0,0,4.688,15h5.625A4.688,4.688,0,0,0,15,10.313V4.688A4.688,4.688,0,0,0,10.313,0Zm3.281,10.313a3.285,3.285,0,0,1-3.281,3.281H4.688a3.285,3.285,0,0,1-3.281-3.281V4.688A3.285,3.285,0,0,1,4.688,1.406h5.625a3.285,3.285,0,0,1,3.281,3.281Z"/><path class="d" d="M7.5,3.75A3.75,3.75,0,1,0,11.25,7.5,3.75,3.75,0,0,0,7.5,3.75Zm0,6.094A2.344,2.344,0,1,1,9.844,7.5,2.347,2.347,0,0,1,7.5,9.844Z"/><circle class="d" cx="0.5" cy="0.5" r="0.5" transform="translate(11.032 2.969)"/></g></g></svg>