<svg xmlns="http://www.w3.org/2000/svg" xmlns:xlink="http://www.w3.org/1999/xlink" width="86.132" height="79" viewBox="0 0 86.132 79"><defs><style>.a,.x{fill:#fff;}.a{stroke:#707070;}.b{fill:#91e0e8;}.c{clip-path:url(#a);}.d{fill:#445ea0;}.e{fill:#2e4c89;}.f{fill:#293d7c;}.g{fill:#1a2b63;}.h{fill:#eef6ff;}.i{fill:#ff9518;}.j{fill:#28a5a5;}.k{fill:#1e99d6;}.l{fill:#fee97d;}.m{fill:#fed402;}.n{fill:#d8ecfe;}.o{fill:#26a6fe;}.p{fill:#fd4755;}.q{fill:#fb2b3a;}.r{fill:#0593fc;}.s{fill:#68ca44;}.t{fill:#4fc123;}.u{fill:#7a6d79;}.v{fill:#cbc4cc;}.w{fill:#b5adb6;}</style><clipPath id="a"><rect class="a" width="73.493" height="73.493"/></clipPath></defs><g transform="translate(-1522.5 -613.479)"><g transform="translate(1529.632 613.479)"><g transform="translate(0 0)"><circle class="b" cx="39.5" cy="39.5" r="39.5" transform="translate(0 0)"/></g></g><g transform="translate(1522.5 616.541)"><g class="c" transform="translate(0 0)"><g transform="translate(0 8.944)"><rect class="d" width="17.412" height="7.444" transform="translate(28.155 52.294)"/><rect class="e" width="3.199" height="7.444" transform="translate(28.155 52.294)"/><path class="f" d="M50.667,62.136a.808.808,0,0,1-.806.806H17.777a.808.808,0,0,1-.806-.806V58.912a.808.808,0,0,1,.806-.806H49.861a.808.808,0,0,1,.806.806Z" transform="translate(3.042 1.471)"/><path class="g" d="M20.17,62.136V58.912a.808.808,0,0,1,.806-.806h-3.2a.808.808,0,0,0-.806.806v3.224a.808.808,0,0,0,.806.806h3.2A.808.808,0,0,1,20.17,62.136Z" transform="translate(3.042 1.471)"/><path class="f" d="M0,52.1c0,.887,1.07,1.612,2.377,1.612H73.722V42.914H0Z" transform="translate(0 -1.252)"/><path class="g" d="M3.2,52.1V42.914H0V52.1a1.617,1.617,0,0,0,1.612,1.612h3.2A1.617,1.617,0,0,1,3.2,52.1Z" transform="translate(0 -1.252)"/><path class="d" d="M50.008,44.91c0-.356-.356,4.5,0,4.5H73.722V9.356A1.777,1.777,0,0,0,71.95,7.584H1.772A1.777,1.777,0,0,0,0,9.356V49.407H50.008Z" transform="translate(0 -7.584)"/><path class="h" d="M49.469,44.371a.646.646,0,0,1,.645-.645H69.639V11.4a.808.808,0,0,0-.806-.806H3.812a.808.808,0,0,0-.806.806V44.518a.808.808,0,0,0,.806.806H49.469v-.953Z" transform="translate(0.539 -7.045)"/><circle class="d" cx="2.243" cy="2.243" r="2.243" transform="translate(34.618 44.954)"/><path class="i" d="M37.092,30.12V18.4a.808.808,0,0,1,.806-.806H34.7a.808.808,0,0,0-.806.806V30.12a.808.808,0,0,0,.806.806h3.2A.808.808,0,0,1,37.092,30.12Z" transform="translate(6.075 -5.791)"/><path class="j" d="M12.79,32.924V19.059a.808.808,0,0,1,.806-.806H10.4a.808.808,0,0,0-.806.806V32.924a.808.808,0,0,0,.806.806h3.2A.808.808,0,0,1,12.79,32.924Z" transform="translate(1.719 -5.672)"/><g transform="translate(5.989 6.374)"><path class="k" d="M29.551,17.181V13.8a.808.808,0,0,1,.806-.806H28.58a.808.808,0,0,0-.806.806v3.386a.808.808,0,0,0,.806.806h1.777A.808.808,0,0,1,29.551,17.181Z" transform="translate(-1.01 -12.99)"/><path class="k" d="M6.855,17.455V14.069a.808.808,0,0,1,.806-.806H5.885a.808.808,0,0,0-.806.806v3.386a.808.808,0,0,0,.806.806H7.662A.808.808,0,0,1,6.855,17.455Z" transform="translate(-5.078 -12.941)"/><path class="k" d="M29.551,36.3V32.919a.808.808,0,0,1,.806-.806H28.58a.808.808,0,0,0-.806.806V36.3a.808.808,0,0,0,.806.806h1.777A.808.808,0,0,1,29.551,36.3Z" transform="translate(-1.01 -9.562)"/><path class="k" d="M6.855,36.3V32.919a.808.808,0,0,1,.806-.806H5.885a.808.808,0,0,0-.806.806V36.3a.808.808,0,0,0,.806.806H7.662A.808.808,0,0,1,6.855,36.3Z" transform="translate(-5.078 -9.562)"/></g></g></g></g><g transform="translate(1525.752 618.741)"><path class="l" d="M58.1,98.18a.7.7,0,0,1-.747-.627V66.231H9.61a1.772,1.772,0,0,0-1.9,1.6v35.352h69.1v-5Z" transform="translate(-7.707 -57.152)"/><g transform="translate(0 9.079)"><path class="m" d="M15.869,66.231H9.307a1.6,1.6,0,0,0-1.6,1.6v35.352H14.27V67.831A1.6,1.6,0,0,1,15.869,66.231Z" transform="translate(-7.707 -66.231)"/></g><path class="n" d="M338.108,184.137H311.5l-.459.137V199.3a.764.764,0,0,0,.764.764H337.8a.764.764,0,0,0,.764-.764V184.274Z" transform="translate(-269.463 -158.896)"/><path class="o" d="M337.8,0h-25.99a.764.764,0,0,0-.764.764V7.032l.451.137h26.622l.445-.137V.764A.764.764,0,0,0,337.8,0Z" transform="translate(-269.463)"/><g transform="translate(4.781 15.135)"><g transform="translate(1.028)"><path class="p" d="M104.664,110.413a5.42,5.42,0,0,0-5.42,5.42c0,.046,0,.091,0,.137H104.1a.57.57,0,0,1,.569.569v4.714a5.42,5.42,0,0,0-.009-10.84Z" transform="translate(-92.506 -110.413)"/><g transform="translate(6.738)"><path class="q" d="M106.838,110.868a5.42,5.42,0,0,0-7.595,4.964h4.35A5.421,5.421,0,0,1,106.838,110.868Z" transform="translate(-99.243 -110.412)"/></g><g transform="translate(0 5.42)"><path class="o" d="M61.686,162.256H50.793a.706.706,0,0,1-.706-.706V150.657a.706.706,0,0,1,.706-.706H61.686a.706.706,0,0,1,.706.706V161.55A.706.706,0,0,1,61.686,162.256Z" transform="translate(-50.087 -149.951)"/></g><g transform="translate(0 5.42)"><path class="r" d="M54.4,161.55V150.657a.706.706,0,0,1,.706-.706h-4.31a.706.706,0,0,0-.706.706V161.55a.706.706,0,0,0,.706.706H55.1A.706.706,0,0,1,54.4,161.55Z" transform="translate(-50.087 -149.951)"/></g><g transform="translate(17.816 6.126)"><path class="s" d="M186.03,155.456l-5.881,10.186a.706.706,0,0,0,.612,1.059h11.762a.706.706,0,0,0,.612-1.059l-5.881-10.186A.706.706,0,0,0,186.03,155.456Z" transform="translate(-180.053 -155.103)"/></g><g transform="translate(17.815 6.126)"><path class="t" d="M184.435,165.642l4.349-7.532-1.532-2.654a.706.706,0,0,0-1.223,0l-5.881,10.186a.706.706,0,0,0,.611,1.059h4.288A.706.706,0,0,1,184.435,165.642Z" transform="translate(-180.052 -155.103)"/></g></g><g transform="translate(0 22.559)"><g transform="translate(0 1.023)"><path class="u" d="M75.123,284.5H43.615a1.028,1.028,0,1,1,0-2.056H75.123a1.028,1.028,0,1,1,0,2.056Z" transform="translate(-42.587 -282.44)"/></g><g transform="translate(8.22)"><circle class="r" cx="2.051" cy="2.051" r="2.051"/></g></g></g><g transform="translate(41.58)"><path class="r" d="M317.568.764A.764.764,0,0,1,318.332,0h-6.526a.764.764,0,0,0-.764.764V7.033h6.526Z" transform="translate(-311.042)"/><g transform="translate(0 7.033)"><path class="v" d="M311.043,51.3h27.519V69.649H311.043Z" transform="translate(-311.043 -51.303)"/></g><g transform="translate(0 7.033)"><path class="w" d="M311.043,51.3h6.526V69.649h-6.526Z" transform="translate(-311.043 -51.303)"/></g><g transform="translate(3.049 2.565)"><circle class="p" cx="1.028" cy="1.028" r="1.028"/><g transform="translate(2.879)"><circle class="l" cx="1.028" cy="1.028" r="1.028"/></g><g transform="translate(5.757)"><circle class="s" cx="1.028" cy="1.028" r="1.028"/></g></g><g transform="translate(4.476 19.611)"><path class="x" d="M361.232,145.119H344.721a1.028,1.028,0,1,1,0-2.056h16.511a1.028,1.028,0,0,1,0,2.056Z" transform="translate(-343.693 -143.063)"/></g><g transform="translate(10.074 10.46)"><path class="x" d="M391.1,79.293l-5.807-2.928a.523.523,0,0,0-.759.467v5.856a.524.524,0,0,0,.759.467l5.807-2.928A.524.524,0,0,0,391.1,79.293Z" transform="translate(-384.53 -76.308)"/></g></g><g transform="translate(46.056 29.02)"><g transform="translate(0 5.313)"><path class="u" d="M361.232,252.514H344.721a1.028,1.028,0,1,1,0-2.056h16.511a1.028,1.028,0,0,1,0,2.056Z" transform="translate(-343.693 -250.458)"/></g><g transform="translate(0 0.737)"><path class="u" d="M361.232,219.135H344.721a1.028,1.028,0,1,1,0-2.056h16.511a1.028,1.028,0,0,1,0,2.056Z" transform="translate(-343.693 -217.079)"/></g><g transform="translate(11.794)"><circle class="x" cx="1.765" cy="1.765" r="1.765"/></g><g transform="translate(4.168 4.576)"><circle class="x" cx="1.765" cy="1.765" r="1.765"/></g></g></g></g></svg>