<svg xmlns="http://www.w3.org/2000/svg" xmlns:xlink="http://www.w3.org/1999/xlink" width="112.51" height="103.193" viewBox="0 0 112.51 103.193"><defs><style>.a,.t{fill:#fff;}.a{stroke:#707070;}.b{fill:#91e0e8;}.c{clip-path:url(#a);}.d{fill:#445ea0;}.e{fill:#2e4c89;}.f{fill:#293d7c;}.g{fill:#1a2b63;}.h{fill:#eef6ff;}.i{fill:#ff9518;}.j{fill:#28a5a5;}.k{fill:#1e99d6;}.l{fill:#ffbd86;}.m{fill:#fed2a4;}.n{fill:#fe9901;}.o{fill:#fb8801;}.p{fill:#0182fc;}.q{fill:#0172fb;}.r{fill:#0593fc;}.s{fill:#8db3df;}.u{fill:#eaf6ff;}.v{fill:#fe646f;}.w{fill:#fd4755;}.x{fill:#799fca;}.y{fill:#647fa0;}.z{fill:#c4e2ff;}.aa{fill:#b3dafe;}</style><clipPath id="a"><rect class="a" width="96" height="96" transform="translate(364 623)"/></clipPath></defs><g transform="translate(-899 -1244)"><g transform="translate(542 618.684)"><g transform="translate(364 625.317)"><circle class="b" cx="51.597" cy="51.597" r="51.597" transform="translate(2.317 0)"/></g></g><g transform="translate(-138 4)"><g class="c" transform="translate(673 621)"><g transform="translate(364 625.317)"><rect class="d" width="22.745" height="9.723" transform="translate(36.777 77.675)"/><rect class="e" width="4.179" height="9.723" transform="translate(36.777 77.675)"/><path class="f" d="M60.987,63.37a1.056,1.056,0,0,1-1.053,1.053H18.024a1.056,1.056,0,0,1-1.053-1.053V59.158a1.056,1.056,0,0,1,1.053-1.053h41.91a1.056,1.056,0,0,1,1.053,1.053Z" transform="translate(9.171 29.082)"/><path class="g" d="M21.15,63.37V59.158A1.056,1.056,0,0,1,22.2,58.105H18.024a1.056,1.056,0,0,0-1.053,1.053V63.37a1.056,1.056,0,0,0,1.053,1.053H22.2A1.056,1.056,0,0,1,21.15,63.37Z" transform="translate(9.171 29.082)"/><path class="f" d="M0,54.908c0,1.158,1.4,2.106,3.1,2.106H96.3v-14.1H0Z" transform="translate(0 20.873)"/><path class="g" d="M4.179,54.908V42.914H0V54.908a2.112,2.112,0,0,0,2.106,2.106H6.285A2.112,2.112,0,0,1,4.179,54.908Z" transform="translate(0 20.873)"/><path class="d" d="M65.322,56.341c0-.465-.465,5.875,0,5.875H96.3V9.9a2.322,2.322,0,0,0-2.315-2.315H2.315A2.322,2.322,0,0,0,0,9.9V62.216H65.322Z" transform="translate(0 1.782)"/><path class="h" d="M63.7,54.717a.843.843,0,0,1,.842-.842h25.5V11.643a1.056,1.056,0,0,0-1.053-1.053H4.059a1.056,1.056,0,0,0-1.053,1.053V54.908a1.056,1.056,0,0,0,1.053,1.053H63.7V54.717Z" transform="translate(1.624 3.406)"/><circle class="d" cx="2.93" cy="2.93" r="2.93" transform="translate(45.22 68.086)"/><path class="i" d="M38.072,33.957V18.643a1.056,1.056,0,0,1,1.053-1.053H34.946a1.056,1.056,0,0,0-1.053,1.053V33.957a1.056,1.056,0,0,0,1.053,1.053h4.179A1.056,1.056,0,0,1,38.072,33.957Z" transform="translate(18.315 7.189)"/><path class="j" d="M13.769,37.417V19.306a1.056,1.056,0,0,1,1.053-1.053H10.643A1.056,1.056,0,0,0,9.59,19.306V37.417a1.056,1.056,0,0,0,1.053,1.053h4.179A1.056,1.056,0,0,1,13.769,37.417Z" transform="translate(5.182 7.547)"/><g transform="translate(7.823 17.692)"><path class="k" d="M30.095,18.465V14.043a1.056,1.056,0,0,1,1.053-1.053H28.827a1.056,1.056,0,0,0-1.053,1.053v4.423a1.056,1.056,0,0,0,1.053,1.053h2.321A1.056,1.056,0,0,1,30.095,18.465Z" transform="translate(7.186 -12.99)"/><path class="k" d="M7.4,18.739V14.316a1.056,1.056,0,0,1,1.053-1.053H6.131a1.056,1.056,0,0,0-1.053,1.053v4.423a1.056,1.056,0,0,0,1.053,1.053H8.453A1.056,1.056,0,0,1,7.4,18.739Z" transform="translate(-5.078 -12.842)"/><path class="k" d="M30.095,37.588V33.166a1.056,1.056,0,0,1,1.053-1.053H28.827a1.056,1.056,0,0,0-1.053,1.053v4.423a1.056,1.056,0,0,0,1.053,1.053h2.321A1.056,1.056,0,0,1,30.095,37.588Z" transform="translate(7.186 -2.656)"/><path class="k" d="M7.4,37.588V33.166a1.056,1.056,0,0,1,1.053-1.053H6.131a1.056,1.056,0,0,0-1.053,1.053v4.423a1.056,1.056,0,0,0,1.053,1.053H8.453A1.056,1.056,0,0,1,7.4,37.588Z" transform="translate(-5.078 -2.656)"/></g></g></g><g transform="translate(960.457 1166.932)"><path class="l" d="M35.451,126.055v-5.744H34.3a.98.98,0,0,1-.98-.98V87.2a1.959,1.959,0,0,1,1.96-1.96h.171V80.225a.98.98,0,0,1,.98-.98H28.214a.98.98,0,0,0-.98.98v45.831a.98.98,0,0,0,.98.98h8.217A.98.98,0,0,1,35.451,126.055Z" transform="translate(53.825 14.419)"/><g transform="translate(81.606 79.227)"><path class="m" d="M113.28,79.245H28.214a.98.98,0,0,0-.98.98v45.83a.98.98,0,0,0,.98.98h23.5l.329-.19,3.772-6.534h5.658a.981.981,0,0,0,.98-.98V108.814l6.221-10.775a.928.928,0,0,1,1.606,0l13.837,23.967.073-.011.072.013,11.087-19.2a.928.928,0,0,1,1.606,0l13.879,24.039.33.19h2.117a.98.98,0,0,0,.98-.98V80.225a.98.98,0,0,0-.98-.98Z" transform="translate(-27.234 -65.054)"/><g transform="translate(68.007 21.75)"><circle class="n" cx="5.095" cy="5.095" r="5.095"/></g><g transform="translate(68.007 21.75)"><path class="o" d="M388.691,124.081a5.1,5.1,0,0,1,3.135-4.7,5.095,5.095,0,1,0,0,9.407A5.1,5.1,0,0,1,388.691,124.081Z" transform="translate(-384.772 -118.986)"/></g><g transform="translate(24.477 0)"><g transform="translate(29.427 37.098)"><path class="p" d="M324.68,200.233l-14.044,24.325H340.66l-14.044-24.325A1.118,1.118,0,0,0,324.68,200.233Z" transform="translate(-310.636 -199.674)"/></g><path class="q" d="M329.655,224.442l11.962-20.718-2.015-3.49a1.118,1.118,0,0,0-1.936,0l-10.994,19.042Z" transform="translate(-294.195 -162.577)"/><path class="r" d="M181.527,236.316h-.22l-1.6,2.772a1.115,1.115,0,0,1-1.932,0l-1.542-2.671a1.977,1.977,0,0,0-3.424,0l-2.5,4.332a1.115,1.115,0,0,1-1.931,0l-1.9-3.29v8.349a.79.79,0,0,1-.789.79H159.92l-3.992,6.914h35.527Z" transform="translate(-155.928 -191.531)"/><g transform="translate(0 46.309)"><path class="p" d="M211.388,256.071h0l2.517-4.36a1.287,1.287,0,0,1-.782-.6l-1.735-3.005Z" transform="translate(-200.839 -248.102)"/><path class="p" d="M165.686,293.669h-5.768l-3.992,6.914h6.1l4.057-7.026A.78.78,0,0,1,165.686,293.669Z" transform="translate(-155.926 -284.911)"/></g><g transform="translate(31.449)"><path class="s" d="M341.04,45.3l-.424-.155L321.266,64.5l.023.261,5.325,5.325.25.013,19.35-19.35-.356-.625Z" transform="translate(-321.266 -37.441)"/><path class="s" d="M449.02,8.346,445.8,5.129a1.684,1.684,0,0,0-2.382,0l-4.109,4.109.322.591,4.879,4.879.4.129,4.109-4.109a1.684,1.684,0,0,0,0-2.382Z" transform="translate(-416.86 -4.635)"/></g><path class="t" d="M219.57,175.174a1.118,1.118,0,0,0-1.936,0l-6.246,10.819v2.6l1.735,3.005a1.305,1.305,0,0,0,2.261,0l2.5-4.332a1.787,1.787,0,0,1,3.095,0l1.542,2.671a1.305,1.305,0,0,0,2.261,0l1.655-2.867Z" transform="translate(-200.839 -142.284)"/><path class="u" d="M219.57,175.174a1.118,1.118,0,0,0-1.936,0l-6.246,10.819v2.6l1.735,3.005a1.285,1.285,0,0,0,.782.6l7.748-13.42Z" transform="translate(-200.839 -142.284)"/></g><g transform="translate(6.087 20.183)"><path class="v" d="M86.406,110.744H61.195a1.959,1.959,0,0,0-1.96,1.96v6.67l.468.2h28.16l.5-.2V112.7A1.959,1.959,0,0,0,86.406,110.744Z" transform="translate(-59.235 -110.744)"/></g><g transform="translate(6.087 20.183)"><path class="w" d="M65.375,112.7a1.959,1.959,0,0,1,1.96-1.959h-6.14a1.959,1.959,0,0,0-1.96,1.959v6.67l.468.2h6.14l-.468-.2Z" transform="translate(-59.235 -110.744)"/></g><g transform="translate(6.087 28.812)"><path class="t" d="M87.386,182.557H60.215a.98.98,0,0,1-.98-.98V156.111H88.366v25.466A.98.98,0,0,1,87.386,182.557Z" transform="translate(-59.235 -156.111)"/></g><g transform="translate(6.087 28.812)"><path class="u" d="M65.375,181.577V156.111h-6.14v25.466a.98.98,0,0,0,.98.98h6.14A.98.98,0,0,1,65.375,181.577Z" transform="translate(-59.235 -156.111)"/></g><g transform="translate(9.561 34.683)"><g transform="translate(0 10.043)"><path class="s" d="M98.25,242.635H78.917a1.427,1.427,0,0,1,0-2.853H98.25a1.427,1.427,0,0,1,0,2.853Z" transform="translate(-77.49 -239.782)"/></g><g transform="translate(11.936 8.426)"><circle class="r" cx="3.043" cy="3.043" r="3.043"/></g><g transform="translate(0 1.617)"><path class="s" d="M98.25,198.337H78.917a1.427,1.427,0,0,1,0-2.853H98.25a1.427,1.427,0,0,1,0,2.853Z" transform="translate(-77.49 -195.484)"/></g><g transform="translate(4.098)"><circle class="r" cx="3.043" cy="3.043" r="3.043"/></g></g><g transform="translate(29.069 22.78)"><circle class="l" cx="1.427" cy="1.427" r="1.427"/></g><g transform="translate(25.137 22.78)"><circle class="l" cx="1.427" cy="1.427" r="1.427"/></g><g transform="translate(21.206 22.78)"><circle class="l" cx="1.427" cy="1.427" r="1.427"/></g></g><g transform="translate(137.532 79.227)"><path class="x" d="M447.159,6.486,445.8,5.13a1.684,1.684,0,0,0-2.382,0l-4.109,4.109,2.547,2.547Z" transform="translate(-416.859 -4.636)"/><path class="x" d="M327.054,63.8l16.11-16.11-2.547-2.547L321.267,64.5l.023.261,5.325,5.325.251.013,2.547-2.547-2.358-2.358A.98.98,0,0,1,327.054,63.8Z" transform="translate(-321.267 -37.442)"/></g><g transform="translate(133.843 83.837)"><g transform="translate(0 22.445)"><path class="y" d="M305.557,146.877a1.684,1.684,0,0,0-.368.554l-3.283,8.036a.505.505,0,0,0,.659.659l8.036-3.283a1.683,1.683,0,0,0,.554-.368Z" transform="translate(-301.867 -146.877)"/></g><g transform="translate(23.03 0)"><path class="z" d="M0,0H4.389V7.918H0Z" transform="translate(0 3.103) rotate(-45)"/></g><g transform="translate(23.03 0)"><path class="aa" d="M0,0H4.389V3.6H0Z" transform="translate(0 3.103) rotate(-45)"/></g></g></g></g></g></svg>