<svg xmlns="http://www.w3.org/2000/svg" xmlns:xlink="http://www.w3.org/1999/xlink" width="36" height="36" viewBox="0 0 36 36"><defs><style>.a,.d{fill:#fff;}.a{stroke:#707070;}.b,.f{fill:none;}.b{stroke:#fff;stroke-width:2px;}.c{clip-path:url(#a);}.e{stroke:none;}</style><clipPath id="a"><rect class="a" width="15" height="15" transform="translate(-0.001 0.001)"/></clipPath></defs><g transform="translate(0.001 -0.001)"><g class="b" transform="translate(-0.001 0.001)"><circle class="e" cx="18" cy="18" r="18"/><circle class="f" cx="18" cy="18" r="17"/></g><g class="c" transform="translate(11 9)"><g transform="translate(-0.001 0.332)"><path class="d" d="M.19,4.678H3.406v9.674H.19Zm0,0" transform="translate(0 -0.015)"/><path class="d" d="M1.819.015a1.676,1.676,0,1,0-.042,3.343H1.8A1.677,1.677,0,1,0,1.819.015Zm0,0" transform="translate(0 -0.015)"/><path class="d" d="M11.3,4.451a3.192,3.192,0,0,0-2.9,1.6V4.678H5.185v9.674H8.4V8.95a2.2,2.2,0,0,1,.106-.785,1.76,1.76,0,0,1,1.65-1.176c1.164,0,1.629.887,1.629,2.188v5.175H15V8.805c0-2.971-1.586-4.354-3.7-4.354Zm0,0" transform="translate(0 -0.015)"/></g></g></g></svg>