<svg xmlns="http://www.w3.org/2000/svg" xmlns:xlink="http://www.w3.org/1999/xlink" width="123" height="123" viewBox="0 0 123 123"><defs><style>.a,.b,.c{fill:#fff;stroke:#fff;stroke-width:20px;}.a{opacity:0.2;}.b{opacity:0.47;}.d{opacity:0.89;}.e,.g{fill:#24167a;}.f{fill:url(#a);}.g{font-size:5px;font-family:SegoeUI, Segoe UI;}.h{stroke:none;}.i{fill:none;}</style><linearGradient id="a" x1="0.5" x2="0.5" y2="1" gradientUnits="objectBoundingBox"><stop offset="0" stop-color="#ff0200"/><stop offset="0.841" stop-color="#f20200"/><stop offset="1" stop-color="#d00301"/><stop offset="1" stop-color="#ba0302"/><stop offset="1" stop-color="#7e0404"/></linearGradient></defs><g transform="translate(-12339 3905.5)"><g class="a" transform="translate(12339 -3905.5)"><circle class="h" cx="61.5" cy="61.5" r="61.5"/><circle class="i" cx="61.5" cy="61.5" r="51.5"/></g><g class="b" transform="translate(12349 -3895.5)"><circle class="h" cx="51.5" cy="51.5" r="51.5"/><circle class="i" cx="51.5" cy="51.5" r="41.5"/></g><g class="c" transform="translate(12367 -3876.5)"><circle class="h" cx="33" cy="33" r="33"/><circle class="i" cx="33" cy="33" r="23"/></g><g transform="translate(12319.504 -3788.704)"><g class="d" transform="translate(54.167 -67.796)"><g transform="translate(0.329)"><path class="e" d="M0,9.77l11.98,23.3s.348.821.633.821.5-.821.5-.821l3.817-8.417L9.457,9.77Z" transform="translate(0 -9.77)"/><path class="f" d="M12.316,24.035l-.073.054Q6.115,12.048,0,0H9.45l7.518,13.529,3.079-2.509h9.18L19.68,18.409l.013.024L17.36,20.2l-5.016,3.884Z" transform="translate(23.431)"/><path class="e" d="M0,9.77l11.98,23.3s.348.821.633.821.5-.821.5-.821l3.817-8.417L9.457,9.77Z" transform="translate(12.012 -9.77)"/></g><g transform="translate(9.329 26.208)"><text class="g" transform="translate(0 4)"><tspan x="0" y="0" xml:space="preserve">WO NDER   LEVEL</tspan></text></g></g></g></g></svg>