<svg xmlns="http://www.w3.org/2000/svg" xmlns:xlink="http://www.w3.org/1999/xlink" width="155" height="155" viewBox="0 0 155 155"><defs><style>.a,.b,.c,.d{fill:#fff;stroke:#fff;stroke-width:20px;}.a{opacity:0.2;}.b{opacity:0.47;}.c{opacity:0.77;}.e{opacity:0.89;}.f,.h{fill:#24167a;}.g{fill:url(#a);}.h{font-size:5px;font-family:SegoeUI, Segoe UI;}.i{stroke:none;}.j{fill:none;}</style><linearGradient id="a" x1="0.5" x2="0.5" y2="1" gradientUnits="objectBoundingBox"><stop offset="0" stop-color="#ff0200"/><stop offset="0.841" stop-color="#f20200"/><stop offset="1" stop-color="#d00301"/><stop offset="1" stop-color="#ba0302"/><stop offset="1" stop-color="#7e0404"/></linearGradient></defs><g transform="translate(-295 -8517.911)"><g class="a" transform="translate(295 8517.911)"><circle class="i" cx="77.5" cy="77.5" r="77.5"/><circle class="j" cx="77.5" cy="77.5" r="67.5"/></g><g class="b" transform="translate(307.602 8530.513)"><circle class="i" cx="64.898" cy="64.898" r="64.898"/><circle class="j" cx="64.898" cy="64.898" r="54.898"/></g><g class="c" transform="translate(321.464 8544.375)"><circle class="i" cx="51.037" cy="51.037" r="51.037"/><circle class="j" cx="51.037" cy="51.037" r="41.037"/></g><g class="d" transform="translate(330.285 8554.456)"><circle class="i" cx="41.585" cy="41.585" r="41.585"/><circle class="j" cx="41.585" cy="41.585" r="31.585"/></g><g transform="translate(339.106 8579.659)"><g class="e" transform="translate(0 0)"><g transform="translate(0)"><path class="f" d="M0,9.77,15.1,39.13s.439,1.034.8,1.034.636-1.034.636-1.034l4.81-10.606L11.917,9.77Z" transform="translate(0 -9.77)"/><path class="g" d="M15.52,30.288l-.092.068Q7.706,15.183,0,0H11.909l9.474,17.049,3.88-3.162H36.83L24.8,23.2l.017.031-2.941,2.233-6.321,4.894Z" transform="translate(29.527)"/><path class="f" d="M0,9.77,15.1,39.13s.439,1.034.8,1.034.636-1.034.636-1.034l4.81-10.606L11.917,9.77Z" transform="translate(15.137 -9.77)"/></g><g transform="translate(11.341 33.026)"><text class="h" transform="translate(0 4)"><tspan x="0" y="0" xml:space="preserve">WO NDER   LEVEL</tspan></text></g></g></g></g></svg>