<svg xmlns="http://www.w3.org/2000/svg" xmlns:xlink="http://www.w3.org/1999/xlink" width="72" height="72" viewBox="0 0 72 72"><defs><style>.a,.c{fill:#fff;}.a{stroke:#707070;}.b{clip-path:url(#a);}</style><clipPath id="a"><rect class="a" width="72" height="72" transform="translate(1432 1442)"/></clipPath></defs><g class="b" transform="translate(-1432 -1442)"><g transform="translate(1432 1442)"><path class="c" d="M35.979,64.405q-1.4,0-2.8-.139A28.4,28.4,0,1,1,59.823,51.482a1.406,1.406,0,0,1-2.357-1.535,25.593,25.593,0,1,0-7.548,7.538,31.909,31.909,0,0,0,4.156-3.407,31.341,31.341,0,0,0,3.392-4.13s3.861-.939,2.357,1.535A18.29,18.29,0,0,1,56.5,55.813a34.2,34.2,0,0,1-5.054,4.031,28.477,28.477,0,0,1-15.472,4.561Zm0,0"/><path class="c" d="M29.5,32.218a1.406,1.406,0,0,1-1.406-1.406.881.881,0,1,0-1.762,0,1.406,1.406,0,1,1-2.812,0,3.693,3.693,0,1,1,7.387,0A1.406,1.406,0,0,1,29.5,32.218Zm0,0"/><path class="c" d="M47.836,32.218a1.406,1.406,0,0,1-1.406-1.406.881.881,0,1,0-1.762,0,1.406,1.406,0,1,1-2.812,0,3.693,3.693,0,1,1,7.387,0,1.406,1.406,0,0,1-1.406,1.406Zm0,0"/><path class="c" d="M36.381,50.254a8.036,8.036,0,0,1-8.028-8.028,1.406,1.406,0,0,1,2.813,0,5.215,5.215,0,0,0,10.43,0,1.406,1.406,0,0,1,2.813,0A8.037,8.037,0,0,1,36.381,50.254Zm0,0"/></g></g></svg>