<svg xmlns="http://www.w3.org/2000/svg" xmlns:xlink="http://www.w3.org/1999/xlink" width="72" height="72" viewBox="0 0 72 72"><defs><style>.a,.c{fill:#fff;}.a{stroke:#707070;}.b{clip-path:url(#a);}</style><clipPath id="a"><rect class="a" width="72" height="72" transform="translate(227 1442)"/></clipPath></defs><g class="b" transform="translate(-227 -1442)"><g transform="translate(227 1442)"><path class="c" d="M32.254,12.1a1.055,1.055,0,0,0-1.491,1.491l2.122,2.122a2.041,2.041,0,0,0,2.884,0l5.469-5.469a1.055,1.055,0,0,0-1.491-1.491l-5.42,5.42ZM71.691,33.063a1.055,1.055,0,0,0-1.492,0l-3.986,3.982L49.882,20.385,68.489,1.8A1.055,1.055,0,0,0,67,.31L44.149,23.129a5.217,5.217,0,0,0-1.535,4.052H41.2a7.491,7.491,0,0,0-5.574,2.49l-.2.228a15.19,15.19,0,0,0-6.253-1.6,5.287,5.287,0,0,0-1.388-5.178L4.709.392a1.055,1.055,0,1,0-1.48,1.5L22.934,21.306,8.728,35.8a1.055,1.055,0,1,0,1.506,1.477l14.2-14.488,1.871,1.843a3.157,3.157,0,0,1,.023,4.491l-12,11.989a3.17,3.17,0,0,1-4.475,0L1.8,33.063A1.055,1.055,0,1,0,.309,34.555L8.364,42.6a5.284,5.284,0,0,0,5.18,1.337,15.225,15.225,0,0,0,.231,2.134,4.548,4.548,0,0,0-1.319.918L10.14,49.3a4.565,4.565,0,0,0,3.653,7.774,4.564,4.564,0,0,0,4.55,4.986q.211,0,.421-.02a4.565,4.565,0,0,0,4.972,4.967,4.572,4.572,0,0,0,7.782,3.652l1.523-1.522,1.523,1.522a4.57,4.57,0,0,0,7.782-3.652,4.565,4.565,0,0,0,4.972-4.967,4.565,4.565,0,0,0,4.972-4.967A4.565,4.565,0,0,0,55.943,49.3l-1.277-1.276a15.488,15.488,0,0,0,3.746-4.1A5.291,5.291,0,0,0,63.636,42.6l8.054-8.046a1.054,1.054,0,0,0,0-1.491ZM15.112,54.271a2.466,2.466,0,0,1-3.481,0,2.455,2.455,0,0,1,0-3.475l2.315-2.313a2.459,2.459,0,1,1,3.481,3.475ZM16.6,59.238a2.455,2.455,0,0,1,0-3.475l2.315-2.313a2.467,2.467,0,0,1,3.481,0,2.455,2.455,0,0,1,0,3.475l-2.315,2.313A2.467,2.467,0,0,1,16.6,59.238ZM21.575,64.2a2.455,2.455,0,0,1,0-3.475l2.315-2.313a2.459,2.459,0,1,1,3.481,3.475L25.056,64.2A2.466,2.466,0,0,1,21.575,64.2Zm10.768,2.654-2.315,2.313a2.467,2.467,0,0,1-3.481,0h0a2.455,2.455,0,0,1,0-3.475l2.315-2.313a2.459,2.459,0,1,1,3.481,3.475Zm22.83-14.325a2.44,2.44,0,0,1-.72,1.737,2.466,2.466,0,0,1-3.481,0l-7.557-7.55a1.055,1.055,0,1,0-1.491,1.492l7.557,7.55a2.455,2.455,0,0,1,0,3.475,2.466,2.466,0,0,1-3.48,0h0l-7.557-7.55a1.055,1.055,0,1,0-1.491,1.492l7.557,7.55a2.455,2.455,0,0,1,0,3.475,2.466,2.466,0,0,1-3.481,0l-7.557-7.55a1.055,1.055,0,1,0-1.491,1.492l7.557,7.55a2.455,2.455,0,0,1,0,3.475,2.466,2.466,0,0,1-3.481,0l-1.6-1.6a4.565,4.565,0,0,0-4.276-7c.013-.139.02-.28.02-.422a4.565,4.565,0,0,0-4.992-4.545c.013-.139.02-.28.02-.422a4.565,4.565,0,0,0-4.992-4.545c.013-.139.02-.28.02-.422a4.563,4.563,0,0,0-4.414-4.561,13.044,13.044,0,0,1-.185-2.9c.055-.05.109-.1.162-.154l12-11.989q.1-.095.185-.194a13.077,13.077,0,0,1,5.952,1.12L27.29,38.984a3.273,3.273,0,0,0,.125,4.5,6,6,0,0,0,8.463,0l4.882-4.877a1.056,1.056,0,0,1,1.491,0L52.288,48.633,54.453,50.8a2.442,2.442,0,0,1,.72,1.737Zm.34-8.2a13.488,13.488,0,0,1-2.353,2.193l-9.419-9.409a3.168,3.168,0,0,0-4.472,0l-4.882,4.877a3.883,3.883,0,0,1-5.481,0,1.164,1.164,0,0,1-.044-1.6L37.2,31.079a5.38,5.38,0,0,1,4-1.788H43.2a5.286,5.286,0,0,0,.95,1.292L56.179,42.6c.117.117.239.226.364.33a13.453,13.453,0,0,1-1.03,1.4Zm6.632-3.222a3.17,3.17,0,0,1-4.475,0L45.639,29.09a3.157,3.157,0,0,1,0-4.468l2.75-2.746,16.332,16.66Z"/></g></g></svg>