<svg xmlns="http://www.w3.org/2000/svg" xmlns:xlink="http://www.w3.org/1999/xlink" width="15" height="15" viewBox="0 0 15 15"><defs><style>.a,.c{fill:#fff;}.a{stroke:#707070;}.b{clip-path:url(#a);}</style><clipPath id="a"><rect class="a" width="15" height="15" transform="translate(0 0.001)"/></clipPath></defs><g class="b" transform="translate(0 -0.001)"><g transform="translate(0 0)"><path class="c" d="M10.313,0H4.688A4.688,4.688,0,0,0,0,4.688v5.625A4.688,4.688,0,0,0,4.688,15h5.625A4.688,4.688,0,0,0,15,10.313V4.688A4.688,4.688,0,0,0,10.313,0Zm3.281,10.313a3.285,3.285,0,0,1-3.281,3.281H4.688a3.285,3.285,0,0,1-3.281-3.281V4.688A3.285,3.285,0,0,1,4.688,1.406h5.625a3.285,3.285,0,0,1,3.281,3.281Z"/><path class="c" d="M7.5,3.75A3.75,3.75,0,1,0,11.25,7.5,3.75,3.75,0,0,0,7.5,3.75Zm0,6.094A2.344,2.344,0,1,1,9.844,7.5,2.347,2.347,0,0,1,7.5,9.844Z"/><circle class="c" cx="0.5" cy="0.5" r="0.5" transform="translate(11.032 2.969)"/></g></g></svg>