<svg xmlns="http://www.w3.org/2000/svg" xmlns:xlink="http://www.w3.org/1999/xlink" width="72" height="72" viewBox="0 0 72 72"><defs><style>.a,.c{fill:#fff;}.a{stroke:#707070;}.b{clip-path:url(#a);}</style><clipPath id="a"><rect class="a" width="72" height="72" transform="translate(1050 1442)"/></clipPath></defs><g class="b" transform="translate(-1050 -1442)"><g transform="translate(1050 1442)"><path class="c" d="M66.727,2.6H5.273A5.279,5.279,0,0,0,0,7.875V54.281a5.279,5.279,0,0,0,5.273,5.273H27.781L26.512,64a4.875,4.875,0,0,1-4.364,3.291H14.2a1.055,1.055,0,0,0,0,2.109H57.8a1.055,1.055,0,0,0,0-2.109H49.852A4.875,4.875,0,0,1,45.488,64l-1.269-4.443H66.727A5.279,5.279,0,0,0,72,54.281V7.875A5.279,5.279,0,0,0,66.727,2.6ZM5.273,4.711H66.727a3.168,3.168,0,0,1,3.164,3.164V44.789H2.109V7.875A3.168,3.168,0,0,1,5.273,4.711ZM43.46,64.577a6.434,6.434,0,0,0,1.619,2.712H26.921a6.435,6.435,0,0,0,1.619-2.712l1.435-5.022H42.025Zm23.267-7.132H5.273a3.168,3.168,0,0,1-3.164-3.164V46.9H69.891v7.383A3.168,3.168,0,0,1,66.727,57.445Z"/><path class="c" d="M36,49.008a3.164,3.164,0,1,0,3.164,3.164A3.168,3.168,0,0,0,36,49.008Zm0,4.219a1.055,1.055,0,1,1,1.055-1.055A1.056,1.056,0,0,1,36,53.227Z"/></g></g></svg>