<svg xmlns="http://www.w3.org/2000/svg" xmlns:xlink="http://www.w3.org/1999/xlink" width="76" height="76" viewBox="0 0 76 76"><defs><style>.a{fill:#fff;stroke:#707070;}.b{clip-path:url(#a);}.c{fill:#91e0e8;}.d{fill:#445ea0;}.e{fill:#2e4c89;}.f{fill:#293d7c;}.g{fill:#1a2b63;}.h{fill:#eef6ff;}.i{fill:#ffaf10;}.j{fill:#ff9518;}.k{fill:#c3ddf4;}.l{fill:#ef8318;}.m{fill:#69cdff;}.n{fill:#5dc1d8;}.o{fill:#28a5a5;}.p{fill:#52bbef;}.q{fill:#1e99d6;}</style><clipPath id="a"><rect class="a" width="76" height="76" transform="translate(364 623)"/></clipPath></defs><g class="b" transform="translate(-364 -623)"><g transform="translate(364 624.63)"><circle class="c" cx="36.309" cy="36.309" r="36.309" transform="translate(1.63 0)"/><rect class="d" width="16.005" height="6.842" transform="translate(25.88 54.66)"/><rect class="e" width="2.941" height="6.842" transform="translate(25.88 54.66)"/><path class="f" d="M47.945,61.81a.743.743,0,0,1-.741.741H17.712a.743.743,0,0,1-.741-.741V58.846a.743.743,0,0,1,.741-.741H47.2a.743.743,0,0,1,.741.741Z" transform="translate(1.425 3.249)"/><path class="g" d="M19.912,61.81V58.846a.743.743,0,0,1,.741-.741H17.712a.743.743,0,0,0-.741.741V61.81a.743.743,0,0,0,.741.741h2.941A.743.743,0,0,1,19.912,61.81Z" transform="translate(1.425 3.249)"/><path class="f" d="M0,51.354a1.486,1.486,0,0,0,1.482,1.482H45.968V42.914H0Z" transform="translate(0 1.973)"/><path class="g" d="M2.941,51.354v-8.44H0v8.44a1.486,1.486,0,0,0,1.482,1.482H4.423A1.486,1.486,0,0,1,2.941,51.354Z" transform="translate(0 1.973)"/><path class="d" d="M45.968,41.894a.593.593,0,0,1,.593-.593H67.766V9.213a1.634,1.634,0,0,0-1.629-1.629H1.629A1.634,1.634,0,0,0,0,9.213V46.028H45.968Z" transform="translate(0 -0.993)"/><path class="h" d="M45.715,41.642a.593.593,0,0,1,.593-.593H64.256V11.331a.743.743,0,0,0-.741-.741H3.747a.743.743,0,0,0-.741.741V41.777a.743.743,0,0,0,.741.741H45.715v-.876Z" transform="translate(0.252 -0.741)"/><circle class="d" cx="2.062" cy="2.062" r="2.062" transform="translate(31.821 47.913)"/><path class="i" d="M58.858,29.108a.743.743,0,0,1-.741.741H34.634a.743.743,0,0,1-.741-.741V18.331a.743.743,0,0,1,.741-.741H58.117a.743.743,0,0,1,.741.741V29.108Z" transform="translate(2.846 -0.153)"/><path class="j" d="M36.834,29.108V18.331a.743.743,0,0,1,.741-.741H34.634a.743.743,0,0,0-.741.741V29.108a.743.743,0,0,0,.741.741h2.941A.743.743,0,0,1,36.834,29.108Z" transform="translate(2.846 -0.153)"/><g transform="translate(36.85 31.733)"><path class="k" d="M41.5,33H35.107a1.111,1.111,0,1,1,0-2.223H41.5A1.111,1.111,0,1,1,41.5,33Z" transform="translate(-33.996 -30.778)"/><path class="k" d="M41.5,36.118H35.107a1.111,1.111,0,0,1,0-2.223H41.5a1.111,1.111,0,1,1,0,2.223Z" transform="translate(-33.996 -30.517)"/><path class="k" d="M48.481,33H43.729a1.111,1.111,0,1,1,0-2.223h4.751a1.111,1.111,0,1,1,0,2.223Z" transform="translate(-33.272 -30.778)"/><path class="k" d="M48.481,36.118H43.729a1.111,1.111,0,1,1,0-2.223h4.751a1.111,1.111,0,1,1,0,2.223Z" transform="translate(-33.272 -30.517)"/><path class="k" d="M56.852,33H50.8a1.111,1.111,0,0,1,0-2.223h6.052a1.111,1.111,0,1,1,0,2.223Z" transform="translate(-32.678 -30.778)"/><path class="k" d="M56.852,36.118H50.8a1.111,1.111,0,0,1,0-2.223h6.052a1.111,1.111,0,1,1,0,2.223Z" transform="translate(-32.678 -30.517)"/></g><g transform="translate(50.145 12.461)"><path class="l" d="M49.373,15.371a.743.743,0,0,1-.741.741H47a.743.743,0,0,1-.741-.741v-1.63A.743.743,0,0,1,47,13h1.63a.743.743,0,0,1,.741.741Z" transform="translate(-46.261 -13)"/><path class="l" d="M53.2,15.371a.743.743,0,0,1-.741.741H50.83a.743.743,0,0,1-.741-.741v-1.63A.743.743,0,0,1,50.83,13h1.63a.743.743,0,0,1,.741.741Z" transform="translate(-45.94 -13)"/><path class="l" d="M57.029,15.371a.743.743,0,0,1-.741.741h-1.63a.743.743,0,0,1-.741-.741v-1.63A.743.743,0,0,1,54.658,13h1.63a.743.743,0,0,1,.741.741Z" transform="translate(-45.618 -13)"/></g><g transform="translate(6.32 14.08)"><path class="m" d="M26.289,35.31H24.955a1.111,1.111,0,1,1,0-2.223h1.334a1.111,1.111,0,0,1,0,2.223Z" transform="translate(-4.318 -12.932)"/><path class="m" d="M21.64,35.31H20.307a1.111,1.111,0,0,1,0-2.223H21.64a1.111,1.111,0,0,1,0,2.223Z" transform="translate(-4.708 -12.932)"/><path class="m" d="M16.992,35.31H15.658a1.111,1.111,0,1,1,0-2.223h1.334a1.111,1.111,0,0,1,0,2.223Z" transform="translate(-5.099 -12.932)"/><path class="m" d="M12.343,35.31H11.01a1.111,1.111,0,0,1,0-2.223h1.334a1.111,1.111,0,0,1,0,2.223Z" transform="translate(-5.489 -12.932)"/><path class="m" d="M30.184,31.188a1.111,1.111,0,0,1-1.111-1.111V28.743a1.111,1.111,0,0,1,2.223,0v1.334A1.111,1.111,0,0,1,30.184,31.188Z" transform="translate(-3.879 -13.39)"/><path class="m" d="M30.184,26.54a1.111,1.111,0,0,1-1.111-1.111V24.095a1.111,1.111,0,0,1,2.223,0v1.334A1.111,1.111,0,0,1,30.184,26.54Z" transform="translate(-3.879 -13.78)"/><path class="m" d="M30.184,21.892a1.111,1.111,0,0,1-1.111-1.111V19.446a1.111,1.111,0,1,1,2.223,0V20.78A1.111,1.111,0,0,1,30.184,21.892Z" transform="translate(-3.879 -14.17)"/><path class="m" d="M6.942,31.188a1.111,1.111,0,0,1-1.111-1.111V28.743a1.111,1.111,0,0,1,2.223,0v1.334A1.111,1.111,0,0,1,6.942,31.188Z" transform="translate(-5.831 -13.39)"/><path class="m" d="M6.942,26.54a1.111,1.111,0,0,1-1.111-1.111V24.095a1.111,1.111,0,0,1,2.223,0v1.334A1.111,1.111,0,0,1,6.942,26.54Z" transform="translate(-5.831 -13.78)"/><path class="m" d="M6.942,21.892A1.111,1.111,0,0,1,5.831,20.78V19.446a1.111,1.111,0,1,1,2.223,0V20.78A1.111,1.111,0,0,1,6.942,21.892Z" transform="translate(-5.831 -14.17)"/><path class="m" d="M26.289,16.716H24.955a1.111,1.111,0,0,1,0-2.223h1.334a1.111,1.111,0,0,1,0,2.223Z" transform="translate(-4.318 -14.493)"/><path class="m" d="M21.64,16.716H20.307a1.111,1.111,0,0,1,0-2.223H21.64a1.111,1.111,0,0,1,0,2.223Z" transform="translate(-4.708 -14.493)"/><path class="m" d="M16.992,16.716H15.658a1.111,1.111,0,1,1,0-2.223h1.334a1.111,1.111,0,0,1,0,2.223Z" transform="translate(-5.099 -14.493)"/><path class="m" d="M12.343,16.716H11.01a1.111,1.111,0,0,1,0-2.223h1.334a1.111,1.111,0,0,1,0,2.223Z" transform="translate(-5.489 -14.493)"/></g><path class="n" d="M28.856,31.739a.743.743,0,0,1-.741.741H10.332a.743.743,0,0,1-.741-.741V18.994a.743.743,0,0,1,.741-.741H28.115a.743.743,0,0,1,.741.741Z" transform="translate(0.805 -0.098)"/><path class="o" d="M12.531,31.739V18.994a.743.743,0,0,1,.741-.741H10.331a.743.743,0,0,0-.741.741V31.739a.743.743,0,0,0,.741.741h2.941A.743.743,0,0,1,12.531,31.739Z" transform="translate(0.805 -0.098)"/><g transform="translate(5.505 12.45)"><path class="p" d="M32.368,16.843a.743.743,0,0,1-.741.741H28.515a.743.743,0,0,1-.741-.741V13.731a.743.743,0,0,1,.741-.741h3.112a.743.743,0,0,1,.741.741Z" transform="translate(-3.173 -12.99)"/><path class="p" d="M9.673,17.116a.743.743,0,0,1-.741.741H5.819a.743.743,0,0,1-.741-.741V14a.743.743,0,0,1,.741-.741H8.932A.743.743,0,0,1,9.673,14Z" transform="translate(-5.078 -12.967)"/><path class="p" d="M32.368,35.966a.743.743,0,0,1-.741.741H28.515a.743.743,0,0,1-.741-.741V32.854a.743.743,0,0,1,.741-.741h3.112a.743.743,0,0,1,.741.741Z" transform="translate(-3.173 -11.384)"/><path class="p" d="M9.673,35.966a.743.743,0,0,1-.741.741H5.819a.743.743,0,0,1-.741-.741V32.854a.743.743,0,0,1,.741-.741H8.932a.743.743,0,0,1,.741.741Z" transform="translate(-5.078 -11.384)"/></g><g transform="translate(5.505 12.45)"><path class="q" d="M29.407,16.843V13.731a.743.743,0,0,1,.741-.741H28.515a.743.743,0,0,0-.741.741v3.112a.743.743,0,0,0,.741.741h1.633A.743.743,0,0,1,29.407,16.843Z" transform="translate(-3.173 -12.99)"/><path class="q" d="M6.712,17.116V14a.743.743,0,0,1,.741-.741H5.819A.743.743,0,0,0,5.078,14v3.112a.743.743,0,0,0,.741.741H7.453A.743.743,0,0,1,6.712,17.116Z" transform="translate(-5.078 -12.967)"/><path class="q" d="M29.407,35.966V32.854a.743.743,0,0,1,.741-.741H28.515a.743.743,0,0,0-.741.741v3.112a.743.743,0,0,0,.741.741h1.633A.743.743,0,0,1,29.407,35.966Z" transform="translate(-3.173 -11.384)"/><path class="q" d="M6.712,35.966V32.854a.743.743,0,0,1,.741-.741H5.819a.743.743,0,0,0-.741.741v3.112a.743.743,0,0,0,.741.741H7.453A.743.743,0,0,1,6.712,35.966Z" transform="translate(-5.078 -11.384)"/></g><path class="n" d="M60.985,51.118a.206.206,0,0,1-.018-.11h.018a.269.269,0,0,1,.091.02l6.24,2.292V39.294a.743.743,0,0,0-.741-.741H43.011a.743.743,0,0,0-.741.741V56.307a.743.743,0,0,0,.741.741H63.163Z" transform="translate(3.549 1.607)"/><path class="o" d="M45.211,56.307V39.294a.743.743,0,0,1,.741-.741H43.011a.743.743,0,0,0-.741.741V56.307a.743.743,0,0,0,.741.741h2.941A.743.743,0,0,1,45.211,56.307Z" transform="translate(3.549 1.607)"/><path class="f" d="M59.69,49.935c-.244-.09-.371.037-.281.281l3.907,10.638a.28.28,0,0,0,.5.11l2.074-2.074a.475.475,0,0,1,.669,0l2.39,2.39a.475.475,0,0,0,.669,0l1.137-1.137a.475.475,0,0,0,0-.669l-2.39-2.39a.475.475,0,0,1,0-.669l2.074-2.074a.279.279,0,0,0-.11-.5Z" transform="translate(4.986 2.56)"/></g></g></svg>