<svg xmlns="http://www.w3.org/2000/svg" xmlns:xlink="http://www.w3.org/1999/xlink" width="72" height="72" viewBox="0 0 72 72"><defs><style>.a,.c{fill:#fff;}.a{stroke:#707070;}.b{clip-path:url(#a);}</style><clipPath id="a"><rect class="a" width="72" height="72" transform="translate(652 1442)"/></clipPath></defs><g class="b" transform="translate(-652 -1442)"><g transform="translate(652 1442)"><path class="c" d="M62.27,33.258a8.22,8.22,0,1,0-9.431,0,14.242,14.242,0,0,0-4.858,2.849,18.43,18.43,0,0,0-6.667-3.633,10.414,10.414,0,1,0-10.77,0,18.583,18.583,0,0,0-6.6,3.59,14.358,14.358,0,0,0-4.8-2.792,8.22,8.22,0,1,0-9.431,0A14.429,14.429,0,0,0,0,46.905v.94a.061.061,0,0,0,.057.057H17.48a19.161,19.161,0,0,0-.157,2.408v.969A7.576,7.576,0,0,0,24.9,58.858H46.984a7.576,7.576,0,0,0,7.579-7.579V50.31a19.16,19.16,0,0,0-.157-2.408H71.943A.061.061,0,0,0,72,47.846v-.94A14.484,14.484,0,0,0,62.27,33.258ZM51.614,26.519a5.941,5.941,0,1,1,6.055,5.941H57.44A5.932,5.932,0,0,1,51.614,26.519ZM27.766,23.556a8.135,8.135,0,1,1,8.6,8.12h-.94A8.146,8.146,0,0,1,27.766,23.556ZM8.448,26.519A5.941,5.941,0,1,1,14.5,32.46h-.228A5.941,5.941,0,0,1,8.448,26.519Zm9.431,19.09H2.308a12.172,12.172,0,0,1,12-10.87h.171a12.046,12.046,0,0,1,7.764,2.892A18.7,18.7,0,0,0,17.879,45.609Zm34.376,5.67a5.308,5.308,0,0,1-5.3,5.3H24.874a5.308,5.308,0,0,1-5.3-5.3V50.31A16.365,16.365,0,0,1,35.43,33.97c.157.014.328.014.484.014s.328,0,.484-.014A16.365,16.365,0,0,1,52.255,50.31Zm1.7-5.67a18.656,18.656,0,0,0-4.317-7.921,12.1,12.1,0,0,1,7.835-2.949h.171a12.172,12.172,0,0,1,12,10.87Z"/></g></g></svg>