<svg xmlns="http://www.w3.org/2000/svg" width="121.772" height="100.282" viewBox="0 0 121.772 100.282"><defs><style>.a{fill:#f79410;}.b{fill:#ff5f00;}.c{fill:#db0001;}.d{fill:#ed9400;}</style></defs><path d="M116.647,58.964v.244h.227a.239.239,0,0,0,.122-.031.108.108,0,0,0,.046-.093.1.1,0,0,0-.046-.091.218.218,0,0,0-.122-.031h-.227Zm.23-.172a.421.421,0,0,1,.273.079.262.262,0,0,1,.1.215.247.247,0,0,1-.077.189.374.374,0,0,1-.218.091l.3.347h-.234l-.28-.345h-.091v.345h-.2v-.921h.426Zm-.061,1.239a.731.731,0,0,0,.3-.061.783.783,0,0,0,.244-.165.769.769,0,0,0,.165-.244.773.773,0,0,0-.408-1.011.767.767,0,0,0-.3-.057.8.8,0,0,0-.3.057.777.777,0,0,0-.249.165.787.787,0,0,0-.163.852.726.726,0,0,0,.163.244.78.78,0,0,0,.249.165.758.758,0,0,0,.3.061m0-1.765a1.019,1.019,0,0,1,.715.292.982.982,0,0,1,.216,1.086,1.028,1.028,0,0,1-.216.316,1.087,1.087,0,0,1-.321.213.994.994,0,0,1-.394.079,1.01,1.01,0,0,1-.4-.079,1.039,1.039,0,0,1-.323-.213,1.028,1.028,0,0,1-.212-.326.982.982,0,0,1,.216-1.086.962.962,0,0,1,.323-.213,1.011,1.011,0,0,1,.4-.079M23.6,54.714a3.025,3.025,0,1,1,3.031,3.2,3,3,0,0,1-3.031-3.2m8.09,0v-5H29.515v1.218a3.787,3.787,0,0,0-3.156-1.464,5.253,5.253,0,0,0,0,10.494A3.789,3.789,0,0,0,29.515,58.5v1.213h2.17v-5Zm73.415,0a3.026,3.026,0,1,1,3.032,3.2,3,3,0,0,1-3.032-3.2m8.092,0V45.7H111.02v5.229a3.787,3.787,0,0,0-3.156-1.464,5.253,5.253,0,0,0,0,10.494A3.788,3.788,0,0,0,111.02,58.5v1.213h2.175Zm-54.54-3.3a2.481,2.481,0,0,1,2.529,2.424H56a2.573,2.573,0,0,1,2.656-2.424m.043-1.948c-2.928,0-4.977,2.131-4.977,5.247a4.927,4.927,0,0,0,5.122,5.247,6.069,6.069,0,0,0,4.1-1.4l-1.065-1.61a4.764,4.764,0,0,1-2.907,1.045,2.775,2.775,0,0,1-2.989-2.447H63.4c.021-.27.043-.543.043-.835-.022-3.115-1.948-5.247-4.745-5.247M84.93,54.711a3.025,3.025,0,1,1,3.031,3.2,3,3,0,0,1-3.031-3.2m8.09,0V49.716H90.847v1.218a3.79,3.79,0,0,0-3.156-1.464,5.253,5.253,0,0,0,0,10.494A3.792,3.792,0,0,0,90.847,58.5v1.213h2.172v-5Zm-20.359,0a5.048,5.048,0,0,0,5.331,5.247,5.223,5.223,0,0,0,3.592-1.191L80.539,57.01a4.392,4.392,0,0,1-2.618.9,3.205,3.205,0,0,1,0-6.4,4.4,4.4,0,0,1,2.618.9l1.043-1.756a5.229,5.229,0,0,0-3.592-1.191,5.047,5.047,0,0,0-5.331,5.247m28.01-5.247a2.949,2.949,0,0,0-2.634,1.464V49.716H95.882v9.991h2.175v-5.6c0-1.653.71-2.572,2.131-2.572a3.523,3.523,0,0,1,1.359.251l.67-2.048a4.62,4.62,0,0,0-1.548-.273M42.43,50.511a7.471,7.471,0,0,0-4.075-1.045c-2.531,0-4.161,1.213-4.161,3.2,0,1.629,1.213,2.634,3.448,2.948l1.026.146c1.191.167,1.754.481,1.754,1.045,0,.773-.791,1.213-2.277,1.213a5.324,5.324,0,0,1-3.323-1.045L33.8,58.665a7.208,7.208,0,0,0,4.326,1.3c2.886,0,4.558-1.359,4.558-3.261,0-1.756-1.316-2.675-3.491-2.989l-1.024-.149c-.941-.122-1.694-.311-1.694-.981,0-.731.71-1.17,1.9-1.17a6.445,6.445,0,0,1,3.115.857l.941-1.756Zm28.035-1.043a2.942,2.942,0,0,0-2.632,1.464V49.716H65.68v9.991h2.173v-5.6c0-1.653.71-2.572,2.131-2.572a3.523,3.523,0,0,1,1.359.251l.67-2.048a4.62,4.62,0,0,0-1.548-.273m-18.54.251H48.371V46.685h-2.2v3.031H44.148V51.7h2.027V56.26c0,2.318.9,3.7,3.47,3.7a5.1,5.1,0,0,0,2.718-.773l-.628-1.86a4.022,4.022,0,0,1-1.924.565c-1.086,0-1.44-.67-1.44-1.672V51.7h3.553ZM19.44,59.71V53.44a3.72,3.72,0,0,0-3.931-3.972A3.868,3.868,0,0,0,12,51.246a3.667,3.667,0,0,0-3.3-1.778,3.305,3.305,0,0,0-2.926,1.484V49.716H3.594v9.991H5.785v-5.54a2.339,2.339,0,0,1,2.447-2.656c1.443,0,2.173.941,2.173,2.634v5.561h2.2v-5.54a2.357,2.357,0,0,1,2.445-2.656c1.484,0,2.192.941,2.192,2.634v5.561Z" transform="translate(2.711 40.024)"/><path class="a" d="M70.1,35.371V33.91h-.381l-.44,1-.438-1h-.382v1.461h.27v-1.1l.412.95h.28l.412-.952v1.1H70.1Zm-2.414,0V34.16h.487v-.247H66.933v.247h.487v1.211h.268Z" transform="translate(50.493 25.581)"/><path class="b" d="M58.248,63.76H25.322V4.586H58.249Z" transform="translate(19.102 3.459)"/><path class="c" d="M46.511,37.633A37.571,37.571,0,0,1,60.883,8.046a37.633,37.633,0,1,0,0,59.174A37.571,37.571,0,0,1,46.511,37.633" transform="translate(0 0)"/><path class="d" d="M95.592,37.633A37.631,37.631,0,0,1,34.7,67.22a37.636,37.636,0,0,0,0-59.174A37.631,37.631,0,0,1,95.591,37.633" transform="translate(26.181 0)"/></svg>