<svg xmlns="http://www.w3.org/2000/svg" xmlns:xlink="http://www.w3.org/1999/xlink" width="100" height="102" viewBox="0 0 100 102"><defs><style>.a{fill:#fff;stroke:#707070;}.b{clip-path:url(#a);}.c{fill:#ffdcc8;}.d{fill:#00366d;}.e{fill:#01223c;}.f{fill:#5ff9fe;}.g{fill:#00dde7;}.h{fill:#ffc5bb;}.i{fill:#00bdcd;}.j{fill:#ffadad;}</style><clipPath id="a"><rect class="a" width="100" height="102" transform="translate(897 633)"/></clipPath></defs><g class="b" transform="translate(-897 -633)"><g transform="translate(897 638.183)"><path class="c" d="M82.792,40.4V28.132a9.2,9.2,0,0,0-9.2-9.2H51.146a2.092,2.092,0,0,0-2.084,2.1,13.2,13.2,0,0,0,.635,4.032H6.254A6.23,6.23,0,0,0,0,31.314a6.135,6.135,0,0,0,6.132,6.017h6.133v36.8H73.593a9.2,9.2,0,0,0,9.2-9.2h6.5c1.488,0,2.081-2.946,2.081-4.435l.614-17.4a2.7,2.7,0,0,0-2.7-2.7Z" transform="translate(0 5.598)"/><path class="d" d="M56.511,0H17.617a8.159,8.159,0,0,0-8.15,8.15V83.841a8.159,8.159,0,0,0,8.15,8.15H56.511a8.159,8.159,0,0,0,8.15-8.15V8.15A8.159,8.159,0,0,0,56.511,0Z" transform="translate(2.799 0)"/><path class="e" d="M58.364,83.841V8.15A8.159,8.159,0,0,0,50.214,0H30.767V91.991H50.214A8.159,8.159,0,0,0,58.364,83.841Z" transform="translate(9.096 0)"/><path class="f" d="M54.963,4.16H51.884V7.238a8.468,8.468,0,0,1-8.468,8.468H28.252a8.468,8.468,0,0,1-8.468-8.468V4.16H16.705a3.082,3.082,0,0,0-3.078,3.078V82.292a3.082,3.082,0,0,0,3.078,3.078H54.963a3.082,3.082,0,0,0,3.078-3.078V7.238A3.082,3.082,0,0,0,54.963,4.16Z" transform="translate(4.029 1.23)"/><path class="g" d="M52.974,82.293V7.238A3.082,3.082,0,0,0,49.9,4.16H46.817V7.238a8.468,8.468,0,0,1-8.468,8.468H30.767V85.371H49.9A3.082,3.082,0,0,0,52.974,82.293Z" transform="translate(9.096 1.23)"/><circle class="h" cx="6.133" cy="6.133" r="6.133" transform="translate(6.133 67.46)"/><path class="h" d="M19.581,45.4a6.133,6.133,0,1,0,0-12.265H7.316a6.133,6.133,0,0,0,0,12.265h3.066a6.133,6.133,0,1,0,0,12.265h9.2a6.133,6.133,0,1,0,0-12.265Z" transform="translate(0.35 9.796)"/><path class="g" d="M38.472,63.318H26.926a2.7,2.7,0,0,1,0-5.39H38.472a2.7,2.7,0,0,1,0,5.39Z" transform="translate(7.164 17.126)"/><path class="i" d="M39.235,60.623a2.7,2.7,0,0,0-2.7-2.7H30.767v5.39H36.54A2.7,2.7,0,0,0,39.235,60.623Z" transform="translate(9.096 17.126)"/><path class="h" d="M71.6,36.445V28.132a9.2,9.2,0,0,0-9.2-9.2H39.951a2.085,2.085,0,0,0-2.084,2.085A13.262,13.262,0,0,0,51.114,34.265h5.151V74.128H62.4a9.2,9.2,0,0,0,9.2-9.2h6.5c1.488,0,2.169-3.125,2.169-4.613l.893-20.974a3.208,3.208,0,0,0-3.061-2.9Z" transform="translate(11.195 5.598)"/><g transform="translate(4.6 55.195)"><path class="j" d="M18.882,42.6h-9.2a6.133,6.133,0,1,0,0,12.265h9.2a6.133,6.133,0,1,0,0-12.265Z" transform="translate(-3.55 -42.6)"/><path class="j" d="M52.067,42.6V67.131H58.2a9.2,9.2,0,0,0,9.2-9.2h6.5c1.488,0,2.215-2.678,2.215-4.167L76.6,42.6Z" transform="translate(10.794 -42.6)"/></g></g></g></svg>