<svg xmlns="http://www.w3.org/2000/svg" xmlns:xlink="http://www.w3.org/1999/xlink" width="257" height="75" viewBox="0 0 257 75"><defs><style>.a{fill:#f9f9ff;stroke:#707070;}.b{clip-path:url(#a);}.c{fill:#009cde;}.d{fill:#24167a;}.e{fill:#002f86;}.f{fill:#012069;}</style><clipPath id="a"><rect class="a" width="257" height="75" transform="translate(996 1208)"/></clipPath></defs><g class="b" transform="translate(-996 -1208)"><g transform="translate(996 1117)"><path class="c" d="M198.665,112.794H184.8a2.71,2.71,0,0,0-2.04,1.632l-5.711,35.9a1.082,1.082,0,0,0,1.224,1.224h7.343a1.082,1.082,0,0,0,1.224-1.224l1.632-10.2a1.866,1.866,0,0,1,2.04-1.632h4.487q14.074,0,15.91-13.462a10.693,10.693,0,0,0-1.632-8.975c-2.448-2.04-6.119-3.263-10.606-3.263m1.632,13.462c-.816,4.9-4.487,4.9-8.159,4.9H189.69l1.632-9.383c0-.408.408-.816,1.224-.816h.816c2.448,0,4.9,0,6.119,1.632.816.408.816,1.632.816,3.671"/><path class="d" d="M98.721,112.794H84.851a2.71,2.71,0,0,0-2.04,1.632l-5.711,35.9a1.082,1.082,0,0,0,1.224,1.224h6.527a2.71,2.71,0,0,0,2.04-1.632l1.632-9.79a1.866,1.866,0,0,1,2.04-1.632h4.487q14.074,0,15.91-13.462a10.693,10.693,0,0,0-1.632-8.975c-2.448-2.04-5.711-3.263-10.606-3.263m1.632,13.462c-.816,4.9-4.487,4.9-8.159,4.9h-2.04l1.632-9.383c0-.408.408-.816,1.224-.816h.816c2.448,0,4.9,0,6.119,1.632.408.408.816,1.632.408,3.671"/><path class="d" d="M140.738,125.848h-6.527c-.408,0-1.224.408-1.224.816l-.408,2.04-.408-.816c-1.632-2.04-4.487-2.856-7.751-2.856-7.343,0-13.87,5.711-15.094,13.462a12.159,12.159,0,0,0,2.448,10.2c2.04,2.448,4.9,3.263,8.567,3.263a13.039,13.039,0,0,0,9.383-3.671l-.408,2.04a1.082,1.082,0,0,0,1.224,1.224h6.119a2.71,2.71,0,0,0,2.04-1.632l3.671-22.844c-.408-.408-1.224-1.224-1.632-1.224M131.356,138.9a7.89,7.89,0,0,1-7.751,6.527,6.523,6.523,0,0,1-4.487-1.632,8.7,8.7,0,0,1-1.224-4.9,7.276,7.276,0,0,1,11.83-4.9,7.122,7.122,0,0,1,1.632,4.9"/><path class="c" d="M240.275,125.848h-6.527c-.408,0-1.224.408-1.224.816l-.408,2.04-.408-.816c-1.632-2.04-4.487-2.856-7.751-2.856-7.343,0-13.87,5.711-15.094,13.462a12.159,12.159,0,0,0,2.448,10.2c2.04,2.448,4.9,3.263,8.567,3.263a13.039,13.039,0,0,0,9.383-3.671l-.408,2.04a1.082,1.082,0,0,0,1.224,1.224H236.2a2.71,2.71,0,0,0,2.04-1.632l3.671-22.844c-.408-.408-.816-1.224-1.632-1.224M230.892,138.9a7.89,7.89,0,0,1-7.751,6.527,6.523,6.523,0,0,1-4.487-1.632,8.7,8.7,0,0,1-1.224-4.9,7.276,7.276,0,0,1,11.83-4.9,4.682,4.682,0,0,1,1.632,4.9"/><path class="d" d="M176.229,125.848h-6.935a2.119,2.119,0,0,0-1.632.816l-8.975,13.87-4.079-13.054a1.885,1.885,0,0,0-2.04-1.224h-6.527c-.816,0-1.224.816-1.224,1.632l7.343,21.621-6.935,9.79c-.408.816,0,2.04.816,2.04h6.527a2.119,2.119,0,0,0,1.632-.816L176.637,128.3c1.224-1.224.408-2.448-.408-2.448"/><path class="c" d="M248.025,114.018l-5.711,36.714a1.082,1.082,0,0,0,1.224,1.224h5.711a2.71,2.71,0,0,0,2.04-1.632l5.711-35.9a1.082,1.082,0,0,0-1.224-1.224h-6.527c-.408-.408-.816,0-1.224.816"/><path class="e" d="M46.913,100.556c-2.856-3.263-8.159-4.9-15.5-4.9h-20.4a3.5,3.5,0,0,0-2.856,2.448L0,151.548a1.866,1.866,0,0,0,1.632,2.04H14.278L17.541,133.6v.816a3.5,3.5,0,0,1,2.856-2.448h6.119c5.229,0,8.067,1.255,13.982-3.334s8.085-7.511,9.678-15.023v-1.224h0c.408-5.3-.408-8.567-3.263-11.83"/><path class="c" d="M49.768,112.387h0v1.224c-2.856,13.87-11.83,18.357-23.66,18.357H19.989a3.5,3.5,0,0,0-2.856,2.448L13.054,159.3a1.494,1.494,0,0,0,1.632,1.632H25.292a2.284,2.284,0,0,0,2.448-2.04v-.408l2.04-12.646v-.816a2.284,2.284,0,0,1,2.448-2.04h1.632c10.2,0,18.357-4.079,20.4-16.317.816-4.9.408-9.383-2.04-12.238a4.178,4.178,0,0,0-2.448-2.04"/><path class="f" d="M46.913,111.163c-.408,0-.816-.408-1.224-.408a1.5,1.5,0,0,1-1.224-.408,21.551,21.551,0,0,0-5.3-.408H23.252a1.5,1.5,0,0,0-1.224.408,2.243,2.243,0,0,0-1.224,2.04L17.541,133.6v.816a3.5,3.5,0,0,1,2.856-2.448h6.119c11.83,0,20.8-4.9,23.66-18.357a1.5,1.5,0,0,1,.408-1.224c-.816-.408-1.224-.816-2.04-.816-1.224-.408-1.224-.408-1.632-.408"/></g></g></svg>