<svg xmlns="http://www.w3.org/2000/svg" xmlns:xlink="http://www.w3.org/1999/xlink" width="24" height="24" viewBox="0 0 24 24"><defs><style>.a{fill:#b5b5b5;}.b{opacity:0.63;clip-path:url(#a);}</style><clipPath id="a"><rect class="a" width="24" height="24"/></clipPath></defs><g class="b"><g transform="translate(0 1.512)"><g transform="translate(0 12.918)"><path class="a" d="M21.154,16.866H4.029a2.015,2.015,0,1,1,0-4.029H6.044a1.007,1.007,0,1,0,0-2.015H4.029a4.029,4.029,0,1,0,0,8.059H21.154a1.007,1.007,0,1,0,0-2.015Z" transform="translate(0 -10.822)"/></g><g transform="translate(9.066 0)"><path class="a" d="M20.608,2.26a3.865,3.865,0,0,0-5.455,0L13.612,3.8c-.019.016-.042.022-.06.04s-.024.041-.04.06L8.343,9.071A5.249,5.249,0,0,0,6.8,12.8v2.256a1.008,1.008,0,0,0,1.007,1.007h2.256A5.255,5.255,0,0,0,13.8,14.522l6.81-6.81A3.863,3.863,0,0,0,20.608,2.26ZM12.374,13.1a3.253,3.253,0,0,1-2.311.955H8.814V12.8a3.252,3.252,0,0,1,.954-2.31l4.506-4.506,2.6,2.6Zm6.809-6.809-.879.879-2.6-2.6.878-.878a1.842,1.842,0,0,1,2.606,2.6Z" transform="translate(-6.799 -1.134)"/></g></g></g></svg>