<svg xmlns="http://www.w3.org/2000/svg" xmlns:xlink="http://www.w3.org/1999/xlink" width="48" height="48" viewBox="0 0 48 48"><defs><style>.a,.c{fill:#b7092b;}.a{stroke:#707070;}.b{clip-path:url(#a);}</style><clipPath id="a"><rect class="a" width="48" height="48" transform="translate(1312 510)"/></clipPath></defs><g class="b" transform="translate(-1312 -510)"><g transform="translate(1312 510)"><path class="c" d="M24,0A24,24,0,1,0,48,24,24,24,0,0,0,24,0ZM36,37.5A25.529,25.529,0,0,1,10.5,12,1.5,1.5,0,0,1,12,10.5h5.538a1.5,1.5,0,0,1,1.5,1.5,16.543,16.543,0,0,0,1.677,7.335,1.5,1.5,0,0,1-.7,2.01l-2.238,1.08a21.079,21.079,0,0,0,7.791,7.791l1.08-2.235a1.5,1.5,0,0,1,2.01-.7A16.571,16.571,0,0,0,36,28.962a1.5,1.5,0,0,1,1.5,1.5V36h0A1.5,1.5,0,0,1,36,37.5Z"/></g></g></svg>