<svg xmlns="http://www.w3.org/2000/svg" xmlns:xlink="http://www.w3.org/1999/xlink" width="24" height="24" viewBox="0 0 24 24"><defs><style>.a,.d{fill:#b5b5b5;}.a{stroke:#707070;}.b{opacity:0.63;}.c{clip-path:url(#a);}</style><clipPath id="a"><rect class="a" width="24" height="24"/></clipPath></defs><g class="b"><g class="c"><g transform="translate(3.563)"><path class="d" d="M16.734,0H5.484A2.816,2.816,0,0,0,2.672,2.813V21.188A2.816,2.816,0,0,0,5.484,24h11.25a2.816,2.816,0,0,0,2.813-2.812V2.813A2.816,2.816,0,0,0,16.734,0Zm.938,21.188a.939.939,0,0,1-.937.938H5.484a.939.939,0,0,1-.937-.937V2.813a.939.939,0,0,1,.938-.937h1.67l.2.58a.937.937,0,0,0,.889.638H13.98a.937.937,0,0,0,.889-.638l.2-.58h1.67a.939.939,0,0,1,.938.938Z" transform="translate(-2.672)"/></g></g></g></svg>