<svg xmlns="http://www.w3.org/2000/svg" width="24" height="28.766" viewBox="0 0 24 28.766"><defs><style>.a{opacity:0.63;}.b{fill:#b5b5b5;}</style></defs><g class="a" transform="translate(0 0)"><path class="b" d="M93.96,13.857a6.7,6.7,0,0,0,4.9-2.03,6.7,6.7,0,0,0,2.03-4.9,6.7,6.7,0,0,0-2.03-4.9,6.927,6.927,0,0,0-9.8,0,6.7,6.7,0,0,0-2.03,4.9,6.7,6.7,0,0,0,2.03,4.9A6.706,6.706,0,0,0,93.96,13.857ZM90.254,3.222a5.241,5.241,0,0,1,7.414,0A5.009,5.009,0,0,1,99.2,6.928a5.009,5.009,0,0,1-1.536,3.707,5.24,5.24,0,0,1-7.414,0,5.008,5.008,0,0,1-1.536-3.707,5.008,5.008,0,0,1,1.536-3.707Zm0,0" transform="translate(-82.142)"/><path class="b" d="M23.942,255.541a17.113,17.113,0,0,0-.233-1.818,14.322,14.322,0,0,0-.447-1.828,9.028,9.028,0,0,0-.751-1.7,6.425,6.425,0,0,0-1.133-1.476,5,5,0,0,0-1.627-1.023,5.624,5.624,0,0,0-2.078-.376,2.109,2.109,0,0,0-1.126.478c-.338.22-.732.475-1.173.756a6.722,6.722,0,0,1-1.518.669,5.894,5.894,0,0,1-3.713,0,6.7,6.7,0,0,1-1.517-.669c-.437-.279-.832-.534-1.174-.757a2.106,2.106,0,0,0-1.126-.478,5.617,5.617,0,0,0-2.077.376,4.991,4.991,0,0,0-1.628,1.023,6.427,6.427,0,0,0-1.132,1.476,9.044,9.044,0,0,0-.751,1.7,14.355,14.355,0,0,0-.447,1.827,17,17,0,0,0-.233,1.818c-.038.549-.058,1.121-.058,1.7a4.777,4.777,0,0,0,1.419,3.614,5.106,5.106,0,0,0,3.656,1.333H18.925a5.107,5.107,0,0,0,3.656-1.333A4.775,4.775,0,0,0,24,257.24c0-.58-.02-1.151-.058-1.7Zm-2.523,4.092a3.438,3.438,0,0,1-2.493.869H5.074a3.438,3.438,0,0,1-2.493-.869,3.119,3.119,0,0,1-.9-2.393c0-.539.018-1.071.053-1.582a15.331,15.331,0,0,1,.211-1.637,12.661,12.661,0,0,1,.393-1.611,7.363,7.363,0,0,1,.611-1.386,4.763,4.763,0,0,1,.832-1.091,3.313,3.313,0,0,1,1.083-.673A3.879,3.879,0,0,1,6.2,249c.059.031.164.091.334.2.347.226.746.484,1.188.766a8.352,8.352,0,0,0,1.905.851,7.579,7.579,0,0,0,4.75,0,8.362,8.362,0,0,0,1.906-.852c.452-.289.84-.539,1.187-.765.17-.111.275-.171.334-.2a3.882,3.882,0,0,1,1.328.256,3.318,3.318,0,0,1,1.082.673,4.75,4.75,0,0,1,.832,1.091,7.338,7.338,0,0,1,.612,1.386,12.631,12.631,0,0,1,.393,1.611,15.46,15.46,0,0,1,.211,1.637h0c.036.509.054,1.041.054,1.582a3.119,3.119,0,0,1-.9,2.392Zm0,0" transform="translate(0 -233.421)"/></g></svg>