<svg xmlns="http://www.w3.org/2000/svg" xmlns:xlink="http://www.w3.org/1999/xlink" width="180" height="76" viewBox="0 0 180 76"><defs><style>.a{fill:#f9f9ff;stroke:#707070;}.b{clip-path:url(#a);}.c{fill:#095bc0;}.d{fill:#eeb40e;}.e{fill:none;}</style><clipPath id="a"><rect class="a" width="180" height="76" transform="translate(1242 1070)"/></clipPath></defs><g class="b" transform="translate(-1242 -1070)"><g transform="translate(1242.328 1070)"><g transform="translate(0 11.372)"><path class="c" d="M82.242,77H67.567l9.172-56.366H91.415ZM55.221,20.636,41.231,59.405l-1.656-8.349,0,0L34.639,25.711s-.6-5.075-6.961-5.075H4.549l-.271.954a54.9,54.9,0,0,1,15.351,6.443L32.377,77h15.29L71.015,20.636H55.221ZM170.648,77h13.475L172.374,20.634h-11.8c-5.448,0-6.774,4.2-6.774,4.2L131.916,77h15.3l3.059-8.373h18.656L170.648,77ZM154.5,57.064,162.21,35.97l4.338,21.094ZM133.064,34.191l2.094-12.1a42.358,42.358,0,0,0-13.2-2.458c-7.282,0-24.576,3.183-24.576,18.66,0,14.562,20.3,14.743,20.3,22.392s-18.206,6.278-24.215,1.455L91.284,74.792a41.125,41.125,0,0,0,16.564,3.183c10.015,0,25.122-5.185,25.122-19.3,0-14.656-20.48-16.02-20.48-22.392s14.294-5.555,20.573-2.094Z" transform="translate(-4.277 -19.629)"/></g><path class="d" d="M39.577,50.307,34.639,24.958s-.6-5.075-6.961-5.075H4.549l-.271.954a56.858,56.858,0,0,1,21.78,10.936A43.953,43.953,0,0,1,39.577,50.307Z" transform="translate(-4.277 -7.506)"/><path class="e" d="M0,0H76.278V76.278H0Z" transform="translate(47.194)"/></g></g></svg>